<?xml version="1.0" encoding="utf-8" ?>
<svg baseProfile="full" height="400" version="1.1" width="400" xmlns="http://www.w3.org/2000/svg" xmlns:ev="http://www.w3.org/2001/xml-events" xmlns:xlink="http://www.w3.org/1999/xlink"><defs /><polyline fill="none" points="254,120 116,265 93,110 61,115 264,121 72,37 72,172 91,210 157,298 158,338 82,244 116,145 175,245 288,135 71,15 66,128 142,163 75,203 259,310 313,49 263,304 162,257 82,249 123,244 309,161 45,170 211,269 323,111 97,280 49,131 148,329 82,10 164,270 90,127 198,160 128,288 121,351 99,233 138,311 104,334 251,338 207,242 162,312 162,226 230,227 286,177 121,167 116,155 86,216 167,160 329,342 62,53 304,171 153,335 101,281 186,326 122,116 318,65 117,162 61,118 147,371 190,354 297,8 76,200 80,207 157,395 161,197 131,304 69,103 194,130 308,176 29,133 167,240 179,151 76,174 140,140 120,268 174,275 99,259 209,238 84,133 264,269 161,294 142,316 209,293 164,122 240,166 61,180 176,308 117,152 162,336 86,222 156,221 156,214 75,4 313,141 49,130 160,265 197,230 163,138 112,303 168,349 77,204 128,238 85,232 88,274 159,147 147,208 241,296 97,6 91,290 154,307 87,25 133,156 232,235 138,137 175,233 176,305 264,268 176,314 246,118 278,178 135,176 199,159 247,324 130,251 189,313 324,138 107,131 248,328 195,309 249,317 130,249 225,322 149,108 107,238 66,24 193,324 171,114 235,323 161,204 234,299 319,144 178,170 169,272 137,277 52,304 225,217 85,0 92,302 125,259 237,337 36,101 198,224 275,263 118,255 133,262 195,292 181,152 262,129 42,118 190,160 314,336 169,265 206,321 70,207 240,290 89,278 71,135 144,178 109,278 48,178 75,164 108,106 57,74 296,7 83,195 205,223 199,309 160,227 209,354 198,314 77,168 122,270 175,124 252,120 262,121 162,198 85,1 45,200 319,69 91,261 52,145 238,163 189,291 135,256 125,293 119,149 205,321 156,240 103,158 77,33 189,287 236,343 298,174 226,329 97,131 56,71 168,215 101,258 235,164 121,308 144,309 166,328 79,176 75,174 274,259 166,332 179,277 163,307 248,320 128,273 176,256 244,225 218,296 214,266 100,135 253,262 75,163 179,344 206,126 66,117 87,4 75,260 213,235 76,24 142,334 221,148 71,142 105,288 228,214 236,125 145,315 197,131 195,340 275,118 90,242 104,116 184,211 42,173 196,354 197,267 131,289 211,212 174,268 133,113 165,139 152,315 150,317 279,231 249,318 110,122 188,232 182,157 196,324 167,348 224,164 101,116 46,148 308,182 200,346 251,183 317,149 193,328 66,33 178,120 125,121 58,82 163,111 241,292 80,230 122,280 28,111 141,140 183,224 203,327 131,171 322,141 195,263 189,160 164,128 194,288 228,319 245,317 86,292 94,260 305,24 138,334 108,109 40,167 150,331 257,314 139,219 195,322 264,324 265,299 169,248 202,261 174,353 163,308 140,279 177,230 177,307 197,284 169,382 97,121 183,334 45,139 58,171 129,285 191,264 135,246 164,303 136,233 28,126 188,233 162,196 147,220 186,163 138,114 186,227 196,231 56,170 146,234 228,344 146,292 156,258 164,203 120,275 264,136 68,135 60,102 189,241 141,229 96,107 182,338 199,296 183,150 143,322 145,217 232,351 116,298 242,296 185,165 226,236 237,161 212,202 313,133 91,251 319,73 48,129 174,222 84,251 93,278 141,345 166,303 58,217 229,265 137,332 249,223 80,231 111,157 142,308 277,251 229,316 175,234 134,248 49,132 237,120 187,398 104,258 74,184 120,291 184,352 195,210 76,1 182,315 82,251 239,292 142,330 194,290 104,269 133,175 233,148 74,18 165,310 128,263 193,214 201,321 204,308 222,294 154,395 130,315 132,236 267,211 114,286 80,225 156,145 209,353 196,247 163,332 173,119 117,247 92,259 122,267 146,235 132,268 211,211 180,272 146,141 28,125 247,335 117,264 50,306 51,165 80,19 134,308 251,316 144,302 312,226 91,254 183,169 145,264 218,320 305,22 89,283 253,322 94,276 110,341 252,314 104,284 189,227 150,220 172,313 235,125 269,294 165,320 133,282 85,238 234,125 239,317 154,293 237,292 101,286 135,309 105,255 39,162 306,326 139,292 137,221 201,255 69,157 102,333 188,299 146,272 187,335 113,265 308,163 37,113 143,267 187,266 177,151 162,345 184,126 191,148 167,229 239,119 182,168 212,331 207,320 236,327 267,121 147,266 265,312 130,116 74,202 106,258 207,225 146,251 182,120 156,243 125,275 153,270 260,179 159,328 84,198 249,225 35,155 129,247 129,263 205,256 272,263 209,313 192,304 161,237 177,228 304,166 108,254 153,374 149,277 158,329 106,148 191,347 84,108 147,319 56,297 126,246 273,179 175,352 110,298 220,316 146,329 194,291 206,323 110,285 158,248 190,166 162,305 174,168 191,149 138,162 57,180 183,278 295,277 134,342 62,127 270,277 201,265 214,265 220,333 117,146 91,232 205,236 180,325 66,36 147,238 73,9 88,270 262,271 242,121 173,309 215,273 221,181 119,312 296,276 213,273 97,252 185,126 168,331 51,95 225,297 258,324 112,263 65,144 132,326 113,120 97,122 325,123 124,248 56,92 182,112 161,348 280,234 81,228 33,112 149,127 156,108 226,212 83,1 117,315 195,211 151,109 161,267 108,229 39,161 55,139 137,306 124,105 46,209 121,113 239,342 245,331 228,305 82,205 188,291 196,329 209,126 205,312 29,136 249,323 189,317 137,286 160,299 72,157 29,130 143,140 132,273 239,181 224,315 129,314 250,336 128,335 102,287 206,240 176,326 95,130 235,317 159,205 163,324 171,224 81,148 159,332 77,212 191,217 65,125 116,304 126,256 44,158 203,313 112,273 38,114 73,32 137,264 310,158 224,174 181,257 83,188 94,280 158,302 74,27 184,155 147,228 184,309 228,304 167,310 179,305 235,165 226,316 125,286 246,234 187,315 151,289 103,333 148,208 112,249 210,235 196,131 76,181 59,149 133,341 240,119 84,260 224,277 122,264 164,281 104,283 153,215 183,304 172,240 307,160 119,288 145,128 131,267 187,121 273,118 197,147 167,269 152,392 206,247 190,289 92,17 41,147 160,396 172,252 155,116 116,281 252,328 251,268 45,207 182,113 198,345 42,172 119,278 51,167 190,150 256,259 165,241 188,266 234,301 30,104 219,127 93,279 100,281 141,257 53,92 95,111 202,349 40,165 190,273 30,331 150,270 132,272 180,158 183,115 94,14 46,310 135,234 189,127 137,255 170,219 109,132 144,214 157,135 213,324 288,300 182,229 116,278 180,338 148,135 229,235 238,230 159,134 70,165 195,260 207,226 108,126 79,23 119,295 164,312 246,238 156,201 124,311 172,331 168,139 169,175 322,113 154,305 106,336 180,277 134,139 219,297 323,112 144,297 121,172 42,144 141,263 128,323 149,139 73,35 169,138 108,145 186,233 167,323 255,261 214,261 212,200 181,178 151,347 95,323 93,311 176,354 50,187 203,244 163,221 110,145 183,394 116,284 76,3 258,302 229,299 71,129 231,269 92,110 239,339 234,258 80,128 82,217 171,338 228,265 121,268 207,355 135,102 111,121 136,347 181,339 149,324 178,233 175,353 171,312 176,134 223,230 317,150 150,345 167,317 309,129 212,258 108,290 208,325 150,111 87,199 141,234 168,129 63,47 98,262 84,31 79,26 200,237 226,298 27,123 213,221 228,330 170,322 99,252 144,107 122,159 222,232 310,131 115,295 180,125 104,243 109,273 172,293 232,342 53,87 152,259 160,133 135,275 36,111 193,237 227,310 190,351 209,256 202,350 125,147 141,180 198,212 143,180 188,272 106,138 92,254 224,169 212,233 141,163 125,263 309,235 85,265 77,210 116,250 157,139 146,307 223,150 75,17 306,162 51,134 154,341 65,145 113,291 178,280 235,330 312,45 189,315 108,264 208,308 126,169 136,250 108,116 246,222 181,313 259,314 164,113 86,108 248,175 151,234 51,164 162,133 176,324 138,258 57,290 146,256 162,138 155,215 170,268 74,25 165,353 231,210 53,85 75,140 88,210 164,291 163,291 65,138 109,223 63,133 225,323 113,288 120,315 110,241 134,176 138,237 115,116 123,159 134,258 197,163 181,173 123,318 89,218 187,399 109,167 123,164 85,188 139,237 102,114 268,271 188,175 234,318 76,166 146,317 223,249 179,251 132,339 190,329 96,279 62,146 240,320 184,328 209,239 187,350 226,216 244,233 165,272 148,332 158,323 76,194 162,134 35,110 248,255 188,352 82,233 148,139 178,263 191,128 231,230 201,157 269,297 85,294 136,176 89,20 106,114 184,296 301,173 163,110 156,325 209,324 116,347 201,249 196,309 79,247 140,332 79,196 253,264 62,102 244,322 121,285 302,262 126,263 199,136 86,184 227,341 39,103 184,300 224,167 151,276 100,329 36,167 87,187 176,388 299,173 308,158 150,297 68,20 86,19 233,174 280,236 111,291 27,114 51,110 118,271 155,262 155,399 85,210 37,329 234,176 121,119 171,174 87,205 207,327 305,23 142,160 141,114 66,118 249,341 213,240 258,255 153,143 251,267 266,270 157,238 186,229 151,285 183,157 33,109 63,216 168,266 93,258 159,228 151,303 51,161 121,316 246,122 78,247 94,281 135,277 207,341 324,121 174,231 116,274 166,201 176,349 74,203 218,278 152,216 326,341 217,274 303,20 69,209 182,320 44,107 57,105 104,280 94,222 224,246 210,289 38,180 168,255 136,294 78,143 159,277 147,253 79,12 212,322 121,160 169,123 156,350 93,10 89,230 231,244 196,224 97,125 42,317 202,345 90,12 109,255 167,136 109,285 195,166 195,341 287,134 46,150 248,182 53,156 311,39 186,116 238,292 123,113 37,328 170,129 226,277 141,301 161,266 218,219 131,308 188,240 184,237 204,241 71,262 197,217 312,335 61,119 96,109 175,325 159,340 207,280 120,301 150,249 121,272 115,287 196,256 256,183 222,331 70,144 193,209 229,350 167,302 77,202 217,324 184,354 148,223 250,177 144,132 310,331 192,277 131,240 293,1 113,260 261,273 327,128 83,225 51,162 254,183 192,118 191,315 7,339 95,8 238,337 262,117 164,345 60,83 287,299 151,326 90,263 270,217 182,281 142,108 125,315 127,274 190,128 168,351 119,291 156,311 160,310 88,268 86,23 187,321 142,286 86,1 230,265 53,80 40,155 87,210 248,331 129,158 43,196 124,257 302,16 229,126 32,331 211,220 163,248 64,47 159,312 77,126 58,170 44,157 185,307 105,116 227,297 149,315 178,117 150,229 173,351 135,159 76,195 149,331 136,251 294,309 210,273 249,270 225,259 144,300 142,242 300,173 50,215 158,348 237,232 28,110 41,145 177,220 119,310 306,168 138,319 289,135 230,344 142,221 305,169 142,124 224,166 85,133 164,218 153,222 50,154 146,324 200,258 211,331 73,180 192,286 205,305 147,232 76,161 208,313 302,177 179,169 161,329 70,22 212,126 63,80 156,148 176,124 110,142 42,195 217,317 186,329 60,71 94,265 222,184 251,237 144,292 182,333 82,191 73,30 340,348 186,325 215,256 143,367 89,209 162,115 51,99 186,225 214,268 86,109 193,255 190,325 70,118 168,253 149,235 92,264 159,265 241,310 235,329 157,319 100,159 201,297 254,242 87,198 252,333 84,16 243,294 222,252 129,323 141,278 176,321 289,287 216,327 57,144 158,235 270,278 190,288 169,383 166,223 188,255 100,247 106,286 172,244 91,264 141,227 192,145 309,154 200,324 223,310 246,227 130,229 187,221 147,254 76,210 187,127 170,162 323,110 211,339 164,229 84,262 179,390 144,304 77,141 165,112 280,131 104,285 215,312 232,232 247,315 260,121 76,160 256,308 175,293 118,121 89,276 244,260 104,267 153,235 258,300 182,307 137,362 134,322 298,313 0,343 61,270 262,298 114,256 186,321 171,118 157,278 221,304 123,145 148,247 163,258 55,217 133,138 125,335 131,154 136,163 146,311 145,311 76,159 309,236 271,274 99,266 145,274 311,333 83,262 307,179 107,267 93,221 52,99 143,232 212,259 204,214 244,176 216,354 135,303 159,333 159,392 299,315 141,331 62,178 158,397 123,273 274,140 134,249 237,162 134,225 134,259 173,278 147,121 192,150 314,51 99,279 137,237 9,339 188,278 64,95 148,348 134,278 78,182 102,258 211,240 151,332 208,297 287,300 82,206 73,182 130,263 136,272 220,310 123,246 146,264 109,287 160,298 249,325 162,234 229,343 314,159 40,154 146,229 125,161 127,229 122,310 138,329 59,114 145,276 83,3 87,197 123,248 285,177 105,269 126,293 55,154 201,319 198,326 91,230 239,171 73,36 212,199 116,291 146,273 215,350 174,307 76,177 176,309 46,125 146,284 180,151 210,212 140,298 255,267 223,296 183,317 181,243 102,144 155,263 160,205 145,115 79,226 261,304 194,285 187,260 204,331 215,311 251,323 136,320 136,318 143,133 168,214 188,256 193,321 269,295 138,294 124,264 192,303 108,137 206,238 172,228 47,170 155,397 192,274 252,335 34,110 311,168 154,297 104,287 307,29 175,239 202,316 108,230 128,290 88,137 126,248 167,180 117,305 194,298 242,116 115,251 167,243 319,148 157,113 141,133 262,273 162,394 307,174 140,271 185,319 44,108 122,352 191,354 268,275 204,256 224,165 198,350 169,346 176,245 218,327 75,125 79,172 161,175 119,271 135,267 220,278 292,137 165,315 84,15 167,307 231,351 136,130 223,335 191,208 137,120 159,377 157,397 90,24 184,224 187,263 247,272 158,268 95,268 81,245 150,115 188,286 133,281 107,259 247,244 307,175 171,352 175,246 212,222 124,279 165,271 37,103 43,198 171,383 195,165 280,233 150,301 139,111 162,241 96,268 164,246 185,256 127,355 148,134 209,355 230,142 144,267 157,226 269,302 147,336 114,252 51,93 83,255 61,83 108,269 80,209 142,177 81,202 112,264 217,241 196,306 106,106 163,270 159,206 161,331 135,344 256,299 147,297 74,139 105,294 210,253 307,28 44,153 220,277 227,316 187,338 189,320 196,215 153,113 84,127 179,212 190,141 163,344 49,214 128,316 223,240 110,253 156,242 219,332 181,231 192,128 155,222 123,261 156,307 122,308 176,316 244,172 122,162 122,168 183,227 215,331 267,263 234,261 187,163 167,268 79,2 217,328 63,136 159,395 156,139 83,147 204,248 249,321 184,265 169,331 243,230 187,114 220,250 248,321 141,322 206,355 203,326 135,253 276,225 83,207 227,330 279,246 182,213 267,317 258,325 308,330 92,10 108,157 211,319 187,259 150,145 206,221 93,320 242,330 98,118 254,302 210,303 324,122 191,319 179,336 182,339 137,328 156,328 59,277 321,142 231,341 243,123 170,139 82,21 261,257 114,308 143,223 206,246 115,114 204,348 197,259 147,231 133,171 212,208 249,315 31,140 172,333 226,345 76,196 134,309 141,111 6,340 103,116 152,249 307,328 163,316 194,220 81,194 87,217 149,336 73,177 91,256 279,230 154,337 114,304 269,216 59,72 174,293 149,292 163,219 210,192 107,337 114,260 147,372 97,271 319,339 88,207 245,330 30,119 47,211 149,393 233,264 166,298 219,154 198,349 221,252 193,218 223,327 187,272 146,297 51,91 75,152 133,261 148,281 64,79 88,21 81,107 53,303 324,341 153,142 174,176 222,218 72,129 177,263 135,268 127,169 229,337 167,123 145,370 145,278 291,304 145,313 181,125 307,159 157,207 158,215 77,142 229,334 79,222 284,297 241,337 132,281 221,334 324,103 110,126 179,177 159,254 275,225 148,273 130,319 223,235 202,297 87,29 148,127 95,264 191,324 131,255 184,165 45,151 104,291 131,103 141,269 143,240 60,173 166,215 167,117 208,318 79,259 188,349 208,346 122,167 310,156 108,125 161,281 239,330 207,243 260,305 213,277 117,164 124,157 102,232 116,290 117,155 201,343 111,276 323,119 206,333 236,177 158,216 200,238 43,118 279,247 80,233 314,136 233,173 227,340 237,324 301,172 230,275 154,210 91,4 179,322 86,204 192,217 157,236 28,112 193,280 101,276 236,179 136,293 165,341 153,299 175,277 91,249 162,127 41,149 58,284 224,173 209,143 173,323 79,173 138,220 253,302 278,182 202,227 213,304 172,385 180,322 82,195 198,145 159,264 65,103 177,117 304,167 169,129 139,288 102,169 112,254 89,110 294,308 111,263 251,322 167,336 94,239 137,320 131,287 272,221 81,246 163,310 81,16 124,260 114,305 70,39 242,344 182,145 204,335 168,312 111,342 247,118 233,338 188,228 272,140 169,292 123,254 181,223 173,296 207,229 154,280 242,186 128,269 185,221 159,109 96,106 284,296 100,286 200,157 72,176 179,313 39,160 184,348 130,273 195,354 111,247 40,151 233,325 170,324 58,101 166,272 124,283 242,185 182,295 249,271 185,153 132,260 290,284 238,319 120,306 231,209 128,302 209,241 44,120 136,134 118,281 134,102 102,246 60,114 301,177 222,313 120,293 274,179 161,216 229,336 115,290 154,328 83,217 164,316 163,259 205,304 164,338 186,299 129,300 308,32 108,339 121,294 101,268 251,244 114,287 94,234 248,244 110,127 168,252 176,161 186,218 176,135 196,220 285,292 217,236 162,283 143,289 311,145 150,248 222,322 186,336 126,288 162,258 233,298 180,299 209,288 195,123 207,146 267,117 198,347 191,252 49,215 244,339 262,258 201,227 80,210 275,257 255,317 144,296 287,181 302,319 195,244 225,335 263,300 219,330 166,180 189,288 126,282 142,329 60,180 79,228 220,255 277,253 170,214 143,337 103,334 222,273 126,286 210,244 167,217 143,327 61,82 198,133 163,313 218,308 266,303 156,339 178,223 201,262 216,143 214,301 61,271 132,114 59,217 195,130 67,41 314,50 122,165 180,257 143,121 244,315 41,117 41,148 65,116 114,301 44,164 62,115 180,307 196,255 208,345 188,167 119,269 74,119 108,258 170,237 142,230 63,116 101,272 43,174 49,171 159,294 199,143 252,246 189,354 224,176 177,124 137,235 62,82 29,131 164,340 154,252 83,132 310,147 75,205 141,243 51,141 188,244 134,281 79,198 252,339 160,295 173,179 145,230 178,264 55,77 180,142 97,120 125,289 128,239 79,218 101,249 245,233 59,278 231,208 243,174 245,327 246,245 104,245 198,316 177,248 234,328 226,252 172,177 86,221 148,283 179,119 129,231 175,351 62,51 163,395 197,258 105,242 141,282 93,211 244,228 268,293 51,152 306,178 176,333 203,152 175,133 170,352 230,208 253,238 127,241 192,346 132,158 158,262 231,233 42,106 255,260 98,111 227,321 194,224 102,275 43,119 56,73 178,175 307,167 67,148 158,350 177,242 105,164 263,183 105,273 208,280 325,125 98,280 284,293 203,225 163,350 80,17 53,146 199,223 164,242 33,101 150,286 180,316 89,203 90,230 228,306 176,296 124,275 101,114 231,297 164,396 134,231 126,147 323,107 201,231 200,318 149,222 309,153 182,248 312,166 124,312 222,349 148,331 195,209 264,261 137,229 123,286 188,148 153,121 210,314 115,170 185,142 173,174 119,265 146,178 65,126 230,237 182,346 66,264 166,199 232,319 181,242 136,319 154,282 138,247 146,121 156,399 209,309 143,219 51,171 136,230 318,67 111,341 207,231 312,148 170,265 153,250 62,54 117,116 141,161 116,300 257,129 227,235 299,316 143,164 300,268 119,283 78,177 193,168 92,230 140,133 189,218 311,138 308,164 70,24 214,145 80,4 143,177 295,175 225,321 230,336 41,150 141,296 264,305 240,310 162,293 139,282 85,6 31,114 159,318 126,135 251,340 94,221 162,180 202,228 162,233 193,257 127,298 86,238 167,135 36,170 298,178 134,343 179,222 144,303 176,273 143,214 88,149 142,109 87,22 209,274 114,251 109,224 69,27 190,296 62,94 152,318 129,120 207,238 127,135 130,155 181,352 159,304 236,331 159,341 129,298 231,212 183,327 153,127 126,247 142,346 91,222 207,233 249,254 114,161 156,208 258,319 126,104 221,303 179,354 52,150 212,298 228,231 110,146 280,243 261,277 126,257 66,41 218,255 171,262 148,285 143,334 285,298 260,257 67,103 54,156 169,330 128,274 93,129 146,139 131,114 80,179 201,219 45,165 177,172 86,255 72,164 190,254 130,325 194,154 234,317 95,115 235,263 146,309 250,239 213,305 147,111 107,155 121,312 168,321 193,304 248,344 198,217 272,179 115,158 150,255 142,322 233,329 240,263 250,245 87,288 112,121 144,293 202,275 154,113 190,302 142,136 192,326 268,129 177,175 276,139 241,235 267,213 81,223 79,249 171,247 180,232 181,252 222,329 162,343 224,327 184,230 161,220 18,335 136,277 203,333 163,279 83,209 133,326 36,169 184,395 207,302 187,318 133,319 31,143 195,229 243,121 270,279 118,310 278,249 150,121 135,316 210,256 107,128 88,132 228,232 188,327 231,147 311,228 56,149 179,337 265,311 125,266 204,227 85,199 82,243 97,286 209,226 80,183 159,344 181,273 310,39 224,338 134,274 274,118 154,299 128,134 37,175 75,192 171,246 288,302 58,104 119,119 150,393 112,293 211,298 72,151 84,230 205,214 227,266 223,351 140,239 141,177 159,275 154,269 234,175 75,28 63,131 114,282 256,120 226,258 196,308 41,144 109,107 138,126 116,272 317,61 73,19 77,0 96,269 169,329 219,274 64,116 156,144 131,161 159,133 188,305 146,328 119,248 81,19 222,339 109,159 44,119 162,332 156,321 70,17 297,275 221,331 86,230 78,142 64,123 320,339 142,270 168,285 105,287 189,155 60,216 217,148 145,317 63,215 146,280 128,244 241,290 138,363 189,273 174,124 165,303 139,289 156,341 172,334 180,174 86,8 64,77 126,294 62,128 150,298 138,266 226,312 135,328 129,295 48,180 108,299 250,268 67,23 164,233 219,219 64,214 67,211 133,316 33,111 223,268 42,146 147,272 206,146 187,175 113,114 82,107 88,12 172,217 250,318 185,327 227,317 149,334 153,342 120,312 299,11 71,143 75,154 227,161 133,103 56,112 211,309 156,342 116,314 49,308 86,192 206,147 256,318 264,271 149,115 301,319 327,341 221,278 168,301 167,325 109,129 211,191 79,29 28,108 110,168 132,105 146,319 257,183 78,248 325,133 220,156 138,243 233,145 123,299 164,335 146,128 161,301 98,132 167,285 147,248 161,378 206,224 179,335 173,320 92,4 76,260 178,171 91,242 139,242 69,25 245,325 163,394 159,338 212,209 145,297 52,139 139,220 144,301 225,237 117,248 153,274 221,344 108,252 141,275 214,316 250,244 192,156 55,72 253,330 56,89 132,337 195,232 130,308 240,311 179,272 191,299 129,303 133,287 267,300 305,252 81,259 257,318 158,122 222,327 315,55 115,268 109,275 309,331 265,179 79,128 171,320 140,222 209,248 43,165 129,276 219,277 158,344 44,155 202,212 184,335 202,325 322,87 151,179 147,329 181,304 205,311 205,244 202,154 130,250 95,277 107,153 306,25 195,317 206,349 202,220 134,237 306,325 124,263 122,301 170,277 115,120 97,276 91,238 263,138 273,260 269,276 267,274 123,309 254,244 159,221 199,284 149,337 143,245 50,155 111,168 114,144 167,273 171,345 129,233 109,257 204,294 209,310 207,126 209,336 204,328 259,277 266,121 77,206 137,256 142,121 141,121 207,244 119,297 106,146 110,279 202,235 139,108 100,114 80,148 149,322 228,274 55,299 246,320 149,271 143,311 102,251 168,299 268,262 180,112 167,318 171,384 263,299 56,296 82,208 200,302 189,314 180,390 181,265 127,134 184,351 228,225 40,189 175,230 72,10 140,264 275,178 212,234 105,335 128,158 209,327 152,325 224,241 66,129 142,284 202,230 134,157 194,214 140,345 315,52 173,321 130,280 98,129 181,329 156,249 161,291 119,166 119,280 154,121 130,303 222,295 160,350 115,345 99,114 175,256 238,312 15,336 140,267 51,160 231,337 308,130 93,226 216,313 196,348 310,181 180,273 144,283 118,268 157,228 210,239 152,115 204,349 173,273 161,239 246,318 102,285 177,343 163,321 98,281 170,269 86,256 338,347 149,111 117,165 139,315 237,235 204,351 164,308 94,9 182,246 249,338 169,232 106,144 211,338 100,131 90,151 94,130 257,120 128,355 109,245 303,322 172,308 98,266 97,123 189,329 87,227 65,121 106,240 184,396 114,158 80,11 181,146 294,307 222,352 52,94 209,282 124,173 245,328 252,266 163,236 238,168 203,285 69,262 60,58 255,324 106,298 203,331 227,267 250,270 66,93 248,345 87,5 27,122 182,255 184,147 127,313 234,347 248,117 34,109 159,127 84,203 221,127 103,258 169,326 78,127 145,298 99,134 108,163 181,113 45,153 147,284 221,219 158,229 136,222 174,119 247,329 239,320 104,278 160,175 153,340 121,302 155,341 155,322 61,145 98,272 300,316 168,240 125,301 206,325 105,285 28,127 311,144 283,178 214,280 224,295 192,117 281,178 117,274 153,115 153,179 189,286 159,292 153,283 194,355 199,317 206,331 150,228 190,312 216,145 263,325 108,300 309,36 187,169 216,273 310,37 126,240 228,347 59,172 191,226 236,335 192,350 176,150 57,179 86,215 186,333 71,20 97,325 81,244 230,234 250,329 152,312 225,315 156,121 129,103 92,210 171,160 184,272 97,284 184,336 108,237 212,210 184,234 69,29 249,240 78,128 109,149 151,338 61,174 202,319 99,130 210,297 108,162 119,298 236,342 217,314 216,305 225,241 153,391 142,215 260,315 163,309 140,254 226,349 240,262 198,238 200,327 198,346 243,341 229,268 63,96 93,314 86,148 55,89 237,331 88,237 243,116 65,95 240,322 326,131 199,133 293,176 146,211 74,186 240,337 200,232 231,126 103,292 95,282 176,178 75,119 180,265 135,272 216,304 188,227 225,242 95,283 167,138 142,305 137,331 182,393 183,338 174,133 119,172 182,352 178,150 147,268 78,208 146,111 76,17 163,251 148,344 11,338 41,321 271,276 37,173 214,257 82,185 199,135 182,351 183,285 163,134 107,127 127,294 171,339 120,161 186,270 157,235 12,337 81,1 161,330 159,114 19,335 118,157 149,311 109,109 80,197 104,293 203,229 122,149 203,296 163,306 172,131 94,317 262,135 247,230 139,283 186,221 218,295 190,279 153,322 196,280 128,247 59,60 164,180 141,216 169,113 43,317 34,101 179,296 135,361 127,254 151,255 70,33 66,265 158,309 324,105 117,278 230,255 86,200 244,317 211,308 188,273 322,88 337,346 171,323 94,223 156,109 313,336 220,147 177,244 131,105 324,104 261,280 134,120 128,114 127,335 224,292 135,314 182,299 166,325 129,275 240,230 145,330 137,172 198,132 208,287 155,316 47,137 189,151 291,284 205,337 247,333 220,276 141,284 206,345 48,144 195,233 55,153 234,306 122,291 157,321 320,144 316,58 157,376 153,316 67,212 130,295 141,328 155,297 153,306 189,208 171,340 187,342 241,173 65,143 215,127 84,296 149,229 152,336 162,322 155,236 97,242 125,267 271,183 303,168 186,244 152,328 195,280 76,175 227,350 156,336 225,254 325,134 269,120 81,242 46,138 37,172 192,139 220,219 168,217 187,261 173,275 114,281 159,116 173,297 48,145 90,232 166,305 91,10 38,182 182,150 206,283 181,325 264,260 166,253 304,176 85,250 203,153 89,18 185,143 210,341 213,320 167,266 189,343 119,306 134,105 241,168 261,121 194,234 177,116 226,241 166,219 109,256 30,120 142,226 139,228 84,199 143,272 156,376 201,263 119,349 125,302 309,152 131,265 195,151 179,158 223,127 155,269 73,33 91,209 268,277 159,320 150,218 229,249 232,303 51,97 185,304 145,240 74,7 72,203 309,155 72,105 91,263 259,322 172,139 188,168 82,227 53,302 72,12 83,28 120,261 104,161 258,276 43,160 259,317 154,278 143,306 130,137 267,312 165,397 103,269 72,155 220,302 199,221 192,129 196,229 34,151 129,232 58,286 240,234 216,238 166,200 173,350 135,263 96,7 51,92 192,302 148,121 245,324 45,166 182,298 123,352 323,108 190,315 209,280 155,294 200,303 153,236 91,127 130,291 127,305 200,158 184,264 69,34 122,259 254,262 175,161 125,104 131,291 89,255 132,120 45,120 220,155 262,179 178,350 185,154 285,297 157,109 193,318 77,106 264,262 149,266 138,107 159,278 118,166 81,31 52,167 88,25 130,336 234,124 128,161 58,105 197,312 215,242 284,181 116,257 180,214 167,219 121,154 51,111 128,256 265,129 191,224 110,236 105,251 98,172 124,155 158,200 125,278 209,352 186,343 86,9 93,319 269,266 79,220 147,307 196,297 67,151 112,290 180,246 109,289 325,137 225,350 82,192 151,293 100,331 44,315 179,241 40,321 66,35 163,245 151,175 99,282 120,299 72,136 161,179 151,115 191,287 198,242 61,146 168,300 194,233 140,161 176,350 164,217 54,177 148,174 193,169 120,158 227,262 103,168 64,137 235,340 74,34 260,118 159,179 278,229 245,288 84,193 280,178 154,268 202,347 57,69 217,143 175,276 168,325 83,238 139,301 135,273 65,124 85,228 192,169 148,235 117,300 239,164 64,215 182,167 210,234 145,292 129,257 235,208 222,268 152,127 216,355 53,137 125,305 307,246 131,282 192,115 76,165 248,325 199,243 68,19 166,255 147,289 320,77 174,330 56,143 129,281 142,319 121,146 40,104 146,286 216,319 311,41 53,176 135,266 75,207 253,183 185,251 212,278 180,391 163,302 222,242 184,324 289,288 213,317 140,307 162,309 75,206 246,221 166,301 133,359 160,282 260,307 110,247 89,271 105,249 247,287 164,259 121,287 138,172 225,240 146,320 85,268 185,397 236,262 263,179 94,241 307,245 139,133 192,213 184,268 258,184 77,213 252,240 61,58 203,355 195,319 147,252 249,182 82,207 261,278 180,216 131,286 188,116 133,116 176,274 159,331 176,312 145,275 135,300 147,332 288,288 53,100 124,143 215,313 176,251 182,308 84,238 141,270 182,277 305,323 333,344 197,296 134,305 265,140 160,179 181,224 112,221 137,335 249,232 145,221 132,277 179,150 140,273 85,135 89,24 138,315 86,247 212,300 231,238 233,154 160,346 138,221 154,223 136,116 268,311 175,279 192,140 227,214 218,279 239,182 99,244 144,114 224,311 194,161 187,237 191,122 141,267 182,234 304,170 196,243 137,273 189,349 83,237 177,317 189,255 157,127 166,320 155,281 198,348 132,228 115,282 45,205 194,268 149,232 236,324 56,101 159,326 173,256 170,336 270,298 128,281 113,144 68,211 225,247 281,182 80,204 235,339 246,288 132,283 81,207 212,280 174,115 28,128 98,327 68,157 215,220 110,300 72,127 138,177 111,270 306,27 255,265 207,232 163,341 162,337 194,304 70,103 150,313 125,292 93,15 136,323 111,302 169,180 250,253 58,91 137,230 68,119 163,343 53,157 150,324 292,306 104,256 229,224 313,163 68,130 246,317 223,329 124,353 178,178 171,269 89,281 174,328 323,109 146,174 110,154 200,269 214,263 43,158 204,249 148,266 196,251 250,183 212,326 115,300 64,46 325,132 313,47 204,239 92,252 133,275 84,231 224,231 227,263 204,347 153,223 180,233 66,130 95,276 326,126 110,153 327,129 225,255 162,268 102,244 172,255 183,306 63,87 242,291 197,132 205,279 141,236 324,139 110,143 334,344 253,245 168,135 85,9 203,251 192,144 141,222 232,255 162,379 218,251 106,141 211,292 118,278 239,170 169,163 111,125 107,266 74,185 163,326 184,148 198,239 101,288 181,143 203,213 199,160 102,277 132,311 95,233 151,395 165,264 70,131 122,106 150,262 81,128 46,211 86,269 121,299 205,238 168,123 160,305 85,247 265,302 169,276 96,284 177,119 45,140 131,311 65,85 57,80 109,160 110,270 197,224 171,337 143,173 152,266 206,344 172,317 86,258 185,352 100,5 82,28 83,150 207,340 106,140 129,336 158,264 140,299 321,80 210,232 85,127 228,255 193,298 169,340 180,341 97,132 217,221 63,50 159,317 185,219 172,179 183,347 103,149 145,246 106,147 184,334 168,220 83,203 108,251 146,270 37,112 126,316 164,198 193,288 125,296 277,229 168,271 233,342 84,243 171,265 212,321 177,321 177,389 176,252 82,31 175,134 202,260 203,318 227,338 269,275 203,332 154,332 150,333 310,180 155,314 83,10 189,327 80,5 147,215 80,224 261,117 213,225 276,226 166,270 97,257 239,340 213,257 227,264 96,276 274,130 250,315 137,324 109,227 125,260 174,226 174,234 51,166 70,25 156,331 216,314 171,221 123,314 99,236 111,240 143,136 175,327 187,143 230,297 50,189 193,301 184,227 80,190 173,115 196,150 93,14 133,226 167,337 165,250 86,133 73,260 225,313 234,257 148,107 161,310 103,114 103,151 131,357 142,318 50,176 146,115 82,212 103,232 60,217 210,294 197,302 112,116 220,234 237,167 274,223 162,175 93,315 126,276 133,136 276,254 120,149 82,300 193,273 58,88 108,276 108,136 142,173 232,335 237,336 156,270 136,242 187,353 242,313 297,274 39,115 118,264 131,175 167,223 30,103 139,136 59,276 80,182 119,257 73,123 89,12 263,324 113,289 240,335 174,150 172,243 184,121 106,107 183,235 103,152 235,320 219,322 243,120 165,237 173,343 208,250 189,264 65,76 202,322 304,22 138,260 261,321 49,306 292,305 166,294 38,178 181,284 242,230 184,301 110,254 191,310 130,114 126,174 105,258 171,177 190,172 89,208 104,263 144,369 124,158 235,331 157,242 147,128 204,149 218,329 150,279 207,256 263,140 215,351 266,316 219,255 95,321 195,247 185,211 152,215 145,347 125,141 131,241 125,152 28,109 153,213 161,347 183,114 90,266 150,302 232,210 203,307 205,338 190,165 177,245 2,342 141,307 165,229 132,304 108,143 311,227 148,319 142,180 108,293 200,141 252,245 90,17 68,161 84,148 61,175 220,350 144,160 286,181 65,46 146,212 165,248 39,186 172,215 154,277 125,236 29,135 157,212 159,137 200,284 92,265 179,175 144,318 247,115 148,276 181,354 78,196 59,279 112,266 311,146 190,333 206,324 257,309 159,345 86,236 127,139 152,257 72,159 172,123 184,231 184,285 193,268 99,262 130,133 167,216 160,233 57,85 201,317 74,187 174,323 101,132 220,295 259,121 77,144 65,265 102,284 115,162 160,110 268,316 210,194 139,274 181,340 112,123 248,227 127,269 148,325 83,257 311,137 268,270 194,273 201,242 52,137 38,181 73,145 233,300 147,139 113,170 61,102 286,292 106,149 36,166 199,280 123,121 229,231 238,120 208,256 187,309 134,247 78,183 83,189 187,231 156,293 239,332 7,340 217,219 68,210 141,221 81,219 5,341 156,106 126,305 191,158 170,348 66,213 249,334 221,153 178,247 313,140 186,211 244,342 89,285 313,161 317,339 122,156 147,107 61,56 47,107 127,149 125,354 139,304 236,178 273,140 234,157 156,334 155,264 267,264 128,151 35,158 147,301 305,254 145,254 46,107 110,295 153,202 134,239 182,224 72,261 182,110 129,293 140,134 43,106 150,221 129,150 127,311 179,345 231,229 156,264 142,326 109,130 150,263 79,13 172,330 242,319 58,113 85,108 231,242 78,146 121,266 163,312 191,328 147,306 234,326 152,323 80,30 202,343 246,272 178,349 218,274 191,111 159,200 236,341 192,219 189,237 150,392 223,252 135,255 75,29 90,23 75,6 85,269 206,275 119,313 149,214 68,21 75,120 314,139 40,117 216,310 105,283 144,311 174,216 195,293 79,199 217,353 220,268 96,160 86,248 72,149 207,274 248,176 235,322 193,163 168,230 90,260 153,275 87,21 168,294 152,139 97,274 252,253 274,183 41,172 149,345 136,133 191,170 237,328 131,254 205,255 173,324 61,88 183,342 140,173 43,167 225,296 133,340 67,263 188,300 68,40 187,314 268,301 184,303 260,318 211,126 205,249 160,301 177,147 129,157 233,337 46,170 140,111 108,105 149,373 120,284 109,250 187,279 201,220 200,311 137,308 218,309 182,316 120,350 207,326 70,34 181,305 103,287 176,255 134,312 174,132 184,166 186,243 311,140 77,171 123,162 198,274 56,153 108,141 217,307 130,307 71,168 316,59 245,259 86,136 312,334 72,138 184,310 238,124 49,155 117,114 105,336 200,241 143,346 181,180 124,273 142,162 133,252 193,311 231,145 167,345 148,328 31,142 237,180 255,183 109,283 136,292 290,136 127,303 181,320 199,228 130,285 191,115 160,325 144,218 118,250 177,240 229,248 178,315 131,293 309,160 209,213 126,253 166,236 92,114 212,325 211,256 83,300 173,226 165,348 81,22 91,293 177,218 148,132 194,303 173,150 221,255 98,171 254,240 195,224 171,277 164,114 170,383 265,117 140,121 234,150 117,347 129,280 176,221 196,351 245,115 157,233 144,329 307,249 174,318 116,296 192,311 101,265 164,352 145,336 166,243 307,161 187,348 133,318 126,270 127,289 254,303 178,269 123,168 207,343 161,311 146,216 70,145 178,354 225,311 208,249 170,123 41,320 184,142 145,182 113,123 225,239 38,327 142,251 73,261 256,185 312,165 309,177 155,338 171,219 247,336 253,326 179,348 172,340 165,180 155,242 135,236 30,139 239,331 104,294 295,5 300,13 99,111 266,117 177,355 212,314 148,346 72,11 187,341 314,52 270,120 123,276 308,177 224,230 174,261 311,133 253,120 110,271 81,3 85,5 108,260 286,299 224,151 160,317 121,284 75,34 160,127 49,136 231,211 126,296 216,237 205,224 232,271 147,225 204,314 198,353 190,218 199,313 179,226 208,355 94,251 207,228 183,298 192,123 150,264 310,172 155,339 98,133 148,284 228,275 95,265 256,316 173,162 292,1 248,222 75,138 110,221 318,66 170,299 44,154 186,169 179,355 110,291 309,239 154,175 210,246 135,295 112,275 176,253 309,238 224,296 111,246 74,260 157,225 216,268 298,273 99,257 242,339 120,139 190,221 250,341 223,336 242,341 183,328 99,288 171,346 109,128 268,297 217,234 225,349 213,242 170,221 215,247 144,320 79,227 208,337 76,199 44,200 43,168 184,116 47,146 197,269 115,272 141,258 113,248 210,277 207,269 102,272 139,364 201,241 168,251 128,153 246,315 228,238 187,349 260,274 158,307 204,285 205,278 189,212 156,313 207,248 160,339 227,258 212,206 172,242 130,287 112,169 199,312 128,311 163,329 79,221 160,134 40,188 143,230 147,115 210,325 226,350 229,270 267,267 218,297 195,285 108,294 139,327 309,330 166,292 130,161 155,179 224,235 311,334 212,295 239,341 172,316 250,224 311,226 110,293 177,241 255,323 76,197 190,115 258,308 228,266 227,126 73,126 183,222 177,224 212,143 192,273 106,295 185,249 202,224 52,135 103,264 132,116 112,159 273,221 181,323 301,14 165,245 82,193 80,178 125,169 109,246 119,252 150,338 227,276 94,282 149,338 79,181 113,281 112,252 196,305 285,181 186,338 140,237 106,135 97,173 34,150 142,253 91,223 245,329 237,124 47,128 186,126 72,171 80,198 135,258 122,282 278,230 113,154 146,236 240,313 156,314 197,250 223,162 197,164 114,275 189,304 165,128 125,281 147,282 244,333 62,179 108,291 180,211 140,238 113,293 69,18 226,126 62,216 222,348 177,315 178,124 57,288 183,177 125,148 126,320 242,315 314,337 79,174 93,230 117,304 150,108 236,228 101,247 243,224 131,298 33,146 226,304 189,350 233,302 50,305 85,204 164,344 179,243 291,137 122,314 221,235 233,254 98,271 103,265 297,9 177,305 221,315 202,259 210,126 114,284 67,264 192,328 173,232 226,267 53,173 196,130 148,144 35,161 212,245 87,244 308,131 147,250 293,306 160,312 207,313 303,19 71,206 80,176 164,341 172,137 177,169 143,333 87,109 179,264 198,223 172,223 244,115 215,280 180,274 173,252 185,234 76,34 316,57 191,349 117,348 168,138 107,254 111,288 210,343 331,343 239,338 121,141 142,263 206,346 65,214 229,209 125,285 276,130 268,276 305,325 127,309 186,112 107,276 178,389 70,143 104,248 153,341 308,157 340,347 241,122 107,116 230,225 105,295 175,115 170,114 178,303 157,175 51,215 45,314 71,38 85,14 73,121 309,35 186,312 121,280 141,297 290,180 105,241 247,330 125,313 51,144 30,138 254,328 59,63 183,351 196,245 156,175 218,318 108,244 56,81 81,243 148,111 243,233 99,283 245,227 279,182 166,128 207,303 132,321 232,273 132,308 299,12 185,344 187,246 227,336 100,272 172,214 173,279 161,203 228,165 250,120 199,299 77,203 245,260 72,139 253,329 155,149 109,168 174,325 192,313 98,257 105,231 84,232 279,245 63,115 100,285 64,267 123,266 195,338 186,226 157,271 176,247 133,120 83,211 206,214 310,38 191,221 44,175 262,303 257,313 244,171 217,325 102,158 113,122 121,275 96,254 188,229 303,259 299,271 286,298 262,307 186,296 96,110 46,121 128,155 127,299 149,304 69,161 224,328 150,261 194,215 72,128 231,324 52,158 81,239 41,319 168,382 94,13 226,309 190,298 144,250 56,82 168,302 179,280 71,122 173,236 97,285 148,141 148,323 190,295 181,238 34,152 87,222 165,398 205,339 228,348 45,121 35,101 41,118 232,274 141,320 222,244 164,139 232,304 271,273 132,318 222,246 211,225 266,179 206,286 35,159 81,241 65,139 272,183 136,361 187,264 144,254 165,175 151,265 169,261 162,393 89,264 99,170 141,314 170,136 68,29 122,316 155,208 72,202 171,248 156,234 106,272 143,134 205,280 199,233 70,21 103,167 188,313 43,159 198,284 192,276 188,351 195,259 79,143 191,171 41,105 183,348 240,295 128,242 161,219 34,149 67,160 93,310 233,324 56,113 100,289 186,170 313,164 33,116 76,180 91,113 161,350 183,211 166,254 86,291 223,248 125,291 265,309 189,325 140,272 260,312 238,235 114,291 143,269 24,333 69,40 166,140 255,303 133,291 272,264 182,303 263,117 180,144 124,282 69,121 204,307 228,334 133,311 210,225 100,116 137,136 114,279 149,218 194,245 133,360 67,43 307,327 53,79 158,247 220,318 146,225 138,252 175,168 188,353 68,30 127,258 148,227 33,147 133,315 232,150 48,133 124,290 45,206 133,313 140,312 205,286 199,247 313,146 103,293 160,226 230,226 242,169 248,231 22,334 185,333 98,236 113,273 139,121 183,166 189,154 169,251 192,319 249,233 100,278 298,10 210,302 89,219 236,159 189,338 145,174 139,161 158,253 61,55 61,123 176,225 226,157 138,320 136,331 280,237 177,274 124,253 180,218 144,239 198,267 302,172 165,281 136,305 81,233 102,147 102,243 126,250 301,265 117,260 168,112 207,312 84,207 182,302 195,273 216,318 79,207 192,164 147,249 187,176 63,48 65,37 128,138 223,160 120,283 168,245 144,261 249,176 159,236 203,311 163,325 164,244 120,255 178,239 177,146 158,237 208,269 158,298 174,344 60,117 182,249 311,152 312,225 129,114 208,348 297,312 89,111 108,235 185,353 132,156 151,346 168,308 230,332 227,242 83,251 221,351 82,247 157,240 212,197 217,351 233,351 140,336 127,104 238,181 131,314 193,129 313,147 244,297 89,282 193,235 177,299 306,163 84,215 43,316 126,138 149,397 164,353 148,219 213,331 239,322 230,144 158,207 153,273 182,334 206,248 183,116 236,326 177,221 235,338 181,169 246,235 143,338 223,277 277,139 211,306 280,244 167,244 136,317 207,227 184,247 177,262 287,291 156,281 103,148 185,243 192,141 308,242 198,263 172,353 177,233 123,290 228,164 181,117 99,289 108,166 201,304 71,205 118,297 187,116 316,156 89,138 61,57 233,125 93,114 227,306 137,102 133,158 89,287 266,183 119,155 135,105 322,115 67,32 165,333 194,289 215,234 144,230 45,124 167,161 91,11 215,327 191,286 252,317 148,322 126,116 97,228 231,148 224,250 40,156 129,170 167,350 137,140 116,116 145,213 150,106 164,265 193,279 243,336 150,217 174,267 166,259 203,220 207,145 159,343 178,115 79,250 204,255 87,290 132,257 133,263 181,158 258,320 165,201 102,134 232,233 175,216 138,121 212,315 190,303 61,269 203,312 110,340 119,263 272,265 139,273 78,210 183,324 141,240 235,158 154,399 177,280 135,130 46,177 192,268 103,154 130,231 125,116 206,343 212,256 217,144 116,153 87,1 70,146 113,255 211,265 214,331 164,136 111,228 125,105 78,213 104,160 71,130 123,269 154,108 294,179 230,303 184,177 145,309 86,228 199,238 192,324 266,313 137,261 217,316 208,350 189,267 271,279 205,125 174,313 213,296 113,275 163,175 161,226 167,294 144,174 110,267 83,219 135,269 205,243 141,266 122,294 178,338 302,261 184,304 268,295 261,301 56,298 298,11 265,314 108,142 98,277 51,140 141,326 57,151 200,227 137,283 85,218 171,229 192,351 84,194 219,280 134,160 26,118 137,160 234,228 188,340 175,240 274,264 97,256 241,167 142,245 158,254 103,256 134,232 193,258 157,146 181,120 305,253 287,289 60,174 184,111 185,233 168,162 168,257 144,181 220,349 113,264 199,285 226,305 125,320 99,159 139,177 114,116 206,226 75,155 222,233 123,268 242,117 182,329 83,107 114,264 157,391 79,229 61,272 161,127 234,349 210,321 166,230 327,130 106,288 125,157 88,18 150,299 200,142 47,309 90,250 142,265 116,282 122,299 103,272 132,269 186,121 204,250 150,321 120,167 102,332 73,179 200,296 108,228 198,124 68,120 141,332 135,265 155,201 103,248 139,137 208,316 165,316 165,346 163,198 129,161 256,267 159,222 183,217 188,147 221,342 206,304 308,181 182,117 91,292 114,120 187,222 130,120 133,327 139,106 79,146 147,136 109,276 131,285 186,397 75,106 230,143 142,255 170,224 130,264 154,335 128,312 60,147 151,145 161,213 132,271 79,189 135,235 136,114 145,136 144,286 210,342 201,324 244,232 110,294 136,325 153,175 148,315 142,107 223,292 113,308 216,301 117,119 309,179 239,183 180,284 164,339 306,250 227,273 87,12 232,341 202,279 88,109 32,115 176,217 197,216 140,328 216,295 124,114 270,183 271,275 138,332 201,243 1,342 252,336 191,213 136,158 150,250 100,263 242,122 148,305 108,138 200,159 142,252 231,255 161,196 119,161 176,172 101,331 176,328 82,130 178,341 107,298 204,305 55,82 78,106 79,15 268,183 154,109 114,345 180,153 99,112 148,311 160,247 144,341 246,239 88,110 80,184 184,302 247,323 126,258 118,301 230,245 233,339 239,123 120,146 258,326 122,273 208,222 74,183 73,165 323,341 53,169 203,255 75,126 125,290 141,262 192,236 184,255 113,159 301,318 71,37 191,159 80,144 219,310 255,120 127,354 55,170 165,300 322,114 79,214 264,130 204,309 137,363 238,330 161,340 80,205 106,253 244,222 57,217 196,327 317,62 229,317 261,279 150,205 202,308 105,248 216,219 77,27 236,165 137,236 152,175 148,142 51,90 51,142 64,266 70,23 139,114 174,256 207,236 273,183 38,113 119,247 230,169 51,143 126,354 82,228 154,149 85,246 111,261 105,263 169,327 325,136 128,170 148,372 227,212 104,167 58,283 90,6 184,345 186,347 117,296 158,377 43,169 86,196 266,141 178,114 112,161 153,260 36,330 194,162 131,237 238,334 236,323 132,296 35,164 190,142 173,222 166,175 63,81 253,321 147,143 323,92 103,155 211,272 210,337 50,136 193,217 140,255 233,273 177,349 166,136 67,155 137,114 197,247 124,243 98,255 203,212 183,320 197,220 115,163 211,268 187,343 178,159 141,365 298,272 287,290 177,332 124,244 236,229 157,281 123,334 59,103 307,165 133,283 108,262 163,249 204,356 249,229 237,230 83,230 131,235 262,301 178,310 168,265 207,288 117,265 101,138 81,201 57,293 90,223 178,353 42,319 40,152 142,241 150,289 182,247 31,103 190,226 207,144 171,251 87,26 197,248 179,246 241,322 155,270 107,272 292,281 186,248 151,270 143,271 69,35 142,256 78,33 68,156 145,369 210,331 200,314 200,257 233,320 59,148 307,30 233,265 189,172 151,312 107,293 167,335 62,129 276,227 65,92 141,244 116,163 293,2 318,339 255,299 127,230 299,270 147,209 277,254 79,187 175,299 88,271 127,282 52,111 302,320 242,260 46,210 163,351 276,140 224,337 156,299 163,328 198,313 85,148 165,252 185,224 186,111 75,158 201,248 85,295 46,126 147,135 90,236 224,244 135,162 308,230 192,275 246,174 151,300 178,314 80,236 76,171 205,235 185,279 150,225 210,327 107,130 71,132 110,107 213,309 229,331 168,197 55,140 98,230 266,129 82,1 243,229 116,249 175,150 147,327 193,137 184,279 131,259 224,168 172,219 81,21 67,138 105,245 266,306 66,46 128,229 254,261 263,139 178,339 285,133 165,243 143,254 194,235 222,127 165,314 106,269 104,166 187,113 87,8 159,233 227,215 93,241 207,315 124,335 191,223 70,164 236,329 295,6 188,161 55,84 302,263 113,116 102,168 163,266 113,294 115,284 112,222 159,135 275,130 187,306 142,140 110,114 194,123 117,268 52,149 323,97 85,202 162,253 157,211 156,333 186,228 155,202 176,327 147,323 294,175 152,340 151,327 72,126 163,269 101,136 89,275 261,129 247,175 226,311 150,292 164,230 144,257 145,238 176,243 249,319 124,255 212,201 176,169 245,229 111,268 171,237 161,324 311,134 108,158 186,271 180,311 174,173 197,249 315,158 202,320 151,247 188,173 165,330 204,334 118,261 167,304 184,156 103,150 201,229 276,178 90,113 170,174 152,273 58,87 146,332 136,329 145,141 120,148 109,243 189,220 147,315 60,274 157,179 202,280 159,229 176,261 131,228 241,344 85,264 215,241 258,119 66,94 94,273 43,142 97,115 114,154 132,270 143,109 193,299 140,325 155,395 63,134 146,315 268,117 145,121 225,345 292,0 132,227 226,232 170,351 324,119 106,337 263,306 90,5 248,122 193,208 218,127 134,112 140,129 82,234 178,227 242,337 234,235 255,322 119,251 140,242 59,180 155,121 242,235 128,298 169,296 147,264 122,153 56,142 322,86 157,302 290,285 164,241 180,315 201,212 182,348 107,152 198,147 216,280 299,13 40,166 195,339 191,255 97,229 201,234 127,284 162,252 77,259 50,153 184,339 83,190 183,167 134,171 173,131 240,123 333,343 310,151 85,208 125,319 195,328 179,317 175,316 240,232 121,157 240,118 165,217 88,222 140,125 212,207 73,160 95,234 126,321 152,258 165,215 152,347 73,128 189,242 77,24 309,173 182,310 133,241 151,392 87,191 70,16 66,212 169,256 118,156 261,183 321,340 147,110 105,268 251,332 130,254 86,188 67,119 141,311 163,349 221,236 228,257 311,169 137,139 267,266 221,295 176,176 186,164 76,137 123,263 145,301 113,161 224,345 244,289 148,133 168,117 145,343 151,292 78,16 204,235 152,299 136,316 69,133 224,268 170,118 151,273 148,178 67,31 231,304 91,17 138,309 186,313 179,271 205,233 207,237 246,115 323,118 114,122 233,336 40,190 184,333 144,258 240,183 75,165 211,143 143,284 209,318 91,114 131,295 182,265 199,304 312,131 121,304 238,339 49,307 175,179 184,248 80,107 93,313 327,127 86,249 31,141 76,162 189,240 123,155 178,245 128,234 158,252 129,324 121,306 277,178 84,266 73,10 243,236 120,153 219,335 231,319 81,237 102,256 50,109 185,236 86,191 165,291 112,260 148,274 124,249 192,116 116,171 135,252 233,236 171,250 74,106 183,314 39,184 298,314 303,171 151,257 234,332 91,109 161,346 199,217 220,307 190,313 192,327 250,326 279,178 130,298 126,252 138,140 310,171 4,341 124,299 174,271 171,215 148,220 100,243 219,235 91,269 96,8 133,293 120,172 217,268 247,334 199,218 186,153 30,137 218,319 34,331 170,215 124,141 178,325 74,125 145,212 235,157 129,256 173,255 82,303 218,146 176,351 258,312 324,102 172,140 136,172 155,240 208,307 141,245 237,263 122,317 72,169 93,273 77,17 101,264 250,242 162,348 161,218 188,150 190,347 179,218 213,145 16,336 171,136 309,230 145,286 232,236 194,323 110,297 206,255 67,158 109,264 99,284 87,202 175,386 162,344 84,9 167,381 223,161 160,392 222,251 159,350 190,112 121,291 223,234 177,261 119,254 338,346 178,298 221,335 159,239 172,221 195,307 140,106 52,169 252,327 201,280 111,156 253,300 221,158 162,331 306,251 199,300 99,235 155,307 106,231 116,310 109,131 156,278 194,246 189,122 138,296 164,293 97,116 208,301 164,175 167,113 311,332 218,322 179,323 178,113 155,272 153,307 241,117 178,297 167,311 167,382 33,148 154,391 236,230 45,313 162,110 186,311 138,364 54,175 245,333 140,218 126,156 245,315 143,332 148,115 150,260 154,202 37,174 319,70 198,228 93,308 243,175 295,179 86,253 168,292 202,352 182,212 213,280 74,182 167,326 128,241 259,256 208,224 157,246 92,266 71,21 100,235 53,147 203,325 145,181 171,255 323,125 83,221 199,230 199,240 105,265 146,269 210,236 324,106 70,162 284,295 92,241 93,280 196,284 230,320 263,121 161,312 125,270 144,280 201,155 149,264 107,239 116,313 83,5 110,116 149,144 92,256 205,314 170,262 269,317 241,262 94,225 61,179 104,244 325,135 205,355 42,161 125,299 85,19 42,162 181,157 44,156 218,268 131,336 155,238 222,160 315,53 171,249 45,203 72,143 169,285 120,280 161,236 135,254 118,165 168,309 188,332 119,285 131,337 94,110 100,267 245,238 142,366 317,63 227,351 206,335 230,212 127,159 231,241 129,174 52,216 192,348 221,340 196,242 309,234 118,259 231,265 144,136 190,277 282,182 127,153 120,155 231,330 50,135 112,158 300,266 239,290 190,319 209,237 215,296 189,117 209,252 196,151 311,42 151,264 172,384 152,276 171,353 179,223 157,210 251,239 209,294 314,137 110,239 61,177 164,116 113,304 123,260 221,330 190,111 71,118 199,307 203,227 96,108 76,201 126,290 108,140 120,114 200,218 79,180 249,222 122,119 319,147 177,313 200,280 135,282 93,257 266,211 207,342 322,84 231,274 228,239 141,287 163,281 72,161 70,166 92,16 211,238 184,154 109,123 326,125 214,221 51,98 125,244 177,142 121,159 161,238 210,301 39,325 244,337 202,255 222,250 249,239 141,106 112,304 127,277 141,324 142,264 287,288 187,301 214,262 181,341 92,272 119,308 180,281 139,307 260,256 208,344 130,270 167,233 146,301 113,235 218,221 141,235 222,323 170,233 132,252 284,133 140,322 236,317 229,241 79,25 69,17 128,255 169,250 98,117 319,149 218,242 68,103 106,261 29,104 67,44 189,333 209,334 29,105 233,175 210,195 324,101 106,279 142,287 157,309 166,256 45,107 114,271 177,144 232,332 242,124 183,341 274,281 83,253 269,140 154,253 83,146 213,308 199,267 141,237 100,233 225,268 88,126 109,116 74,6 199,124 118,267 238,117 138,259 231,235 298,274 309,131 216,353 103,157 140,177 83,2 83,9 300,178 157,314 89,232 139,318 175,272 194,259 306,26 243,317 212,243 81,6 151,295 204,151 61,94 175,333 210,143 67,125 323,100 236,166 254,178 125,160 167,274 232,125 92,221 155,209 240,172 172,332 190,212 182,325 233,153 49,129 79,14 146,347 243,228 189,142 294,4 148,238 131,288 154,222 164,271 125,307 289,286 173,385 142,240 212,299 179,256 114,344 229,166 131,116 89,279 155,375 207,304 114,170 264,137 107,231 188,253 83,21 215,248 185,244 88,228 295,309 147,221 53,86 239,120 76,172 161,235 175,241 208,282 61,121 224,245 131,162 63,132 250,229 199,145 84,5 223,306 322,89 223,343 84,267 72,165 212,281 199,354 180,342 87,253 103,243 49,176 150,213 62,87 55,92 180,354 160,271 219,314 228,233 271,140 310,150 226,158 28,124 67,154 106,271 224,126 137,265 177,388 176,226 57,287 133,111 46,149 62,269 136,162 249,344 200,248 226,347 147,274 45,177 77,1 92,278 89,126 243,171 119,156 186,144 139,325 161,132 224,299 82,186 83,187 47,212 224,218 118,254 172,318 96,173 39,114 73,148 250,332 159,308 193,123 52,136 207,335 181,168 177,304 41,170 152,300 137,327 196,254 148,336 61,122 296,310 117,256 131,158 169,260 251,177 113,306 123,158 265,211 87,289 155,391 172,298 283,181 236,160 76,193 53,82 131,239 164,227 70,161 136,280 76,145 300,14 192,237 98,288 135,284 227,339 228,237 173,322 234,320 102,280 184,221 170,255 113,162 162,306 33,115 195,152 190,304 265,315 212,337 219,244 60,89 173,345 61,93 183,295 271,268 142,306 82,248 97,109 161,397 67,130 201,269 184,350 84,195 170,347 214,264 242,174 177,249 165,251 119,261 124,307 65,117 55,177 178,112 161,214 203,151 215,353 157,116 154,239 215,303 63,97 53,143 221,352 188,331 212,263 143,368 191,157 188,343 185,285 150,319 195,308 145,325 82,211 144,336 200,219 72,103 96,317 219,351 174,386 207,295 210,274 172,342 115,145 319,71 139,164 167,321 121,296 202,248 133,233 57,101 138,310 163,293 189,330 198,351 80,175 172,278 180,116 49,108 187,332 58,282 159,325 252,337 192,298 310,148 152,222 209,223 147,233 220,338 67,153 242,290 89,242 62,130 138,290 54,92 96,115 177,351 204,221 132,234 120,252 110,231 213,143 123,258 289,302 61,85 199,274 256,328 152,274 188,257 149,213 206,278 157,306 167,349 229,255 171,298 233,272 97,7 182,331 243,322 130,357 162,328 139,249 209,344 243,223 185,343 245,237 136,309 203,239 185,115 182,324 287,177 92,257 236,235 52,176 65,140 223,352 58,151 93,254 207,354 102,245 169,239 185,241 188,142 199,308 93,262 121,163 203,235 179,124 189,243 225,155 152,348 246,231 219,334 88,5 132,291 51,305 130,356 288,134 182,394 311,135 177,275 205,149 136,300 112,236 143,335 135,360 120,260 166,316 307,130 172,174 210,278 217,151 95,260 107,338 62,99 206,319 73,146 124,318 167,353 92,271 173,217 66,34 153,268 202,231 137,298 100,112 82,8 27,332 175,271 108,167 50,175 112,343 39,164 43,163 153,317 144,290 83,299 55,76 149,238 165,321 189,238 156,391 122,312 269,179 148,318 160,283 80,0 201,274 175,242 158,206 145,339 175,261 154,237 51,151 45,202 62,268 158,292 86,127 216,259 81,17 119,314 134,114 134,327 162,267 123,116 190,341 144,128 182,330 133,320 180,143 188,354 142,111 301,15 152,314 267,295 152,270 80,238 134,130 14,336 154,375 168,296 185,286 116,164 156,271 293,179 228,163 296,311 205,313 54,217 195,243 119,258 138,317 124,256 187,223 90,208 41,192 232,330 110,275 144,252 118,308 133,279 123,305 132,306 283,132 310,149 224,153 184,239 59,91 133,234 136,120 106,263 187,347 181,295 191,164 265,183 126,151 180,347 193,156 56,150 207,338 52,168 81,11 105,114 201,236 249,235 188,146 262,137 283,296 198,262 158,318 190,301 186,224 205,269 3,342 147,141 222,159 200,317 203,324 295,310 154,295 166,197 152,284 190,342 153,295 128,277 57,147 268,179 117,171 157,241 110,125 91,247 93,237 181,151 149,121 133,302 148,207 214,256 176,310 268,116 183,120 160,308 183,111 197,242 144,111 192,208 156,316 65,94 254,300 244,296 135,172 157,122 77,19 139,319 116,114 200,225 203,221 47,127 324,140 31,331 149,344 189,167 130,252 179,118 181,240 204,234 138,105 156,301 207,328 211,330 159,273 165,311 131,306 72,135 191,353 68,131 104,251 195,159 195,349 119,116 169,262 220,273 264,259 124,142 126,261 175,307 255,268 174,141 157,394 138,104 110,238 197,149 175,223 131,268 210,300 187,212 158,315 74,159 265,121 124,168 153,212 235,350 102,249 82,131 230,236 161,279 125,238 118,119 239,118 87,252 267,265 81,212 247,320 96,278 170,332 188,267 196,303 255,178 48,182 84,245 293,3 155,309 157,213 249,234 49,185 245,222 185,121 75,191 152,302 61,92 199,327 273,280 71,140 166,341 180,120 137,163 227,277 187,245 223,254 210,222 65,266 190,311 91,218 223,338 196,270 280,241 114,273 261,323 158,222 30,118 99,328 200,124 3,341 176,149 192,255 125,309 84,210 181,258 117,311 221,238 212,301 179,325 181,277 111,254 17,335 209,319 76,146 235,337 76,2 177,277 93,272 64,78 47,171 38,325 132,138 85,243 164,224 197,260 247,122 90,253 175,295 171,239 87,270 139,335 181,302 112,144 41,193 118,292 198,296 254,267 197,245 119,249 43,175 163,225 188,323 183,219 251,339 138,293 123,173 122,113 271,219 199,144 164,327 308,165 169,214 57,113 75,5 187,238 234,238 241,313 268,141 227,352 121,116 39,183 135,237 200,347 226,156 47,134 190,116 49,137 157,330 168,180 153,395 98,233 200,229 82,261 86,257 192,238 176,148 64,96 214,260 191,341 91,291 138,108 303,18 121,149 157,249 268,315 220,243 142,165 87,148 219,234 263,270 132,242 153,314 153,238 80,14 272,270 143,336 55,101 177,333 194,326 160,122 108,238 199,268 120,116 160,266 224,324 182,116 82,222 228,345 103,280 146,308 98,326 267,212 315,339 188,127 93,232 268,213 98,243 36,112 279,232 140,321 240,171 39,324 150,296 68,263 316,56 116,268 290,176 155,306 107,109 247,345 146,136 167,267 117,314 29,332 156,265 99,245 94,224 242,316 183,265 124,137 138,254 180,318 228,276 133,276 96,258 255,266 165,233 111,237 90,205 153,396 98,260 60,91 310,332 127,174 296,275 74,19 114,309 178,266 178,251 307,250 159,175 128,174 144,368 137,311 276,255 165,259 103,267 217,149 52,159 214,319 166,306 176,260 107,154 213,307 13,337 150,144 237,168 186,351 134,316 309,34 183,249 100,275 142,307 160,249 158,127 328,342 139,269 130,175 234,343 108,285 223,151 181,211 171,299 171,130 56,178 86,185 62,52 100,170 198,161 297,174 336,346 199,345 76,141 263,301 161,110 57,91 220,336 161,317 172,236 148,224 138,257 112,342 153,261 238,343 123,295 150,174 275,256 153,241 159,248 130,300 181,299 111,289 71,103 158,325 94,115 271,218 316,60 173,235 174,279 157,267 251,330 63,49 257,324 303,260 251,253 212,204 99,278 303,321 220,251 306,167 70,38 144,238 260,323 183,228 175,235 152,113 107,278 137,305 249,224 70,121 211,340 27,115 69,120 92,270 193,154 128,243 168,246 88,238 35,330 153,267 158,399 74,35 124,315 199,259 154,241 138,335 197,219 213,239 117,157 321,82 118,114 207,333 56,80 244,237 185,347 166,139 57,294 196,274 200,211 228,256 141,246 225,271 197,212 164,235 186,256 54,140 210,247 100,290 202,354 224,172 264,183 136,362 101,233 274,280 112,270 129,105 66,42 171,321 82,3 227,261 182,276 227,259 194,167 129,316 229,243 182,253 158,278 167,322 151,224 161,115 79,175 29,134 185,305 160,300 72,173 223,340 119,162 221,320 180,349 93,306 312,43 271,267 191,267 163,352 152,217 200,297 171,123 180,392 137,127 148,297 144,339 131,229 112,285 84,20 134,287 193,356 74,142 191,357 65,213 23,333 241,342 60,273 189,290 168,260 128,285 291,283 219,313 112,269 225,277 142,309 150,272 234,254 224,252 128,300 205,319 232,171 160,334 207,286 108,233 82,11 316,339 93,128 188,321 210,242 172,271 73,178 192,278 116,287 275,260 92,304 78,259 87,208 316,152 138,286 198,354 232,324 110,222 139,276 220,327 86,22 71,261 145,107 80,23 250,243 140,126 217,310 81,302 131,318 137,262 104,162 165,399 179,318 48,213 241,260 111,244 80,214 131,137 165,326 212,262 199,212 270,216 148,327 190,236 207,314 56,91 172,351 122,254 186,310 168,218 151,294 57,152 316,154 142,259 180,305 320,75 184,238 207,249 214,324 122,140 138,265 155,329 125,298 179,265 39,163 136,314 164,196 212,205 106,139 58,73 209,289 227,337 178,224 99,267 145,279 80,6 175,273 275,224 223,177 82,226 214,220 296,6 83,261 171,293 94,316 81,260 198,285 182,278 79,177 183,125 108,338 146,334 267,179 222,337 143,309 230,233 92,277 207,294 224,170 179,352 109,339 120,121 140,301 178,158 304,256 67,156 176,218 140,292 181,216 213,241 132,293 114,114 280,240 175,217 290,303 133,240 69,32 181,281 165,325 87,149 156,395 205,285 136,247 152,236 216,235 192,221 125,140 93,252 124,145 94,240 176,119 222,149 275,262 187,336 308,329 84,235 181,244 165,222 156,309 202,321 197,327 39,185 215,238 214,297 110,301 210,282 156,323 80,3 112,114 161,198 307,180 179,239 195,297 243,333 133,243 102,116 161,283 258,129 44,140 162,335 162,255 33,331 275,258 122,143 143,259 137,345 151,204 219,278 191,279 197,280 155,308 174,239 141,303 131,156 230,270 313,132 243,115 199,323 135,325 105,246 37,176 82,250 113,282 44,198 162,280 80,188 155,234 183,178 289,303 222,324 171,232 239,169 128,116 226,234 98,287 103,251 121,251 60,148 305,164 141,277 192,138 221,333 100,328 76,106 109,222 252,316 204,150 164,321 91,295 167,319 128,319 76,25 217,315 175,141 35,163 270,116 55,112 135,298 170,130 107,262 179,257 88,1 88,233 232,247 141,259 158,312 167,248 87,28 147,309 57,291 182,170 137,272 145,277 263,323 143,298 36,329 193,286 316,155 93,265 270,299 79,210 176,355 130,293 268,269 156,107 183,268 86,194 269,264 108,146 57,148 223,178 135,322 91,226 309,172 182,241 157,312 163,135 206,298 143,124 92,238 84,297 206,241 268,310 121,310 266,212 115,309 199,260 105,278 176,230 164,239 182,332 227,333 140,228 187,217 113,301 226,253 221,347 270,129 144,251 177,219 76,28 196,212 163,196 142,267 278,250 235,227 154,270 143,295 73,181 173,140 39,323 218,233 126,113 126,235 85,30 55,178 86,193 29,129 146,221 87,20 256,257 106,165 288,177 155,318 134,238 214,267 176,160 227,319 141,125 165,163 223,309 80,177 159,276 218,153 221,327 215,235 222,278 58,285 226,310 137,257 226,233 169,328 124,281 182,111 111,124 213,276 108,232 255,328 143,224 180,351 162,202 195,253 166,300 254,332 179,220 219,317 224,306 223,334 132,359 36,165 175,252 121,350 167,346 116,303 131,120 220,274 82,16 164,330 296,179 247,181 124,136 91,125 306,175 105,267 125,136 314,138 204,321 70,168 170,236 231,228 200,321 193,354 242,329 65,141 197,256 243,293 87,190 170,113 115,122 184,219 106,143 83,258 127,286 179,334 151,239 143,286 225,232 218,314 248,315 237,329 91,267 108,124 72,175 175,323 35,157 199,262 55,141 75,210 76,176 268,317 200,255 185,240 189,299 72,158 237,327 124,161 135,116 249,244 181,327 120,308 172,267 108,287 151,291 41,191 234,342 145,111 272,261 48,179 169,225 97,259 114,162 47,178 235,336 172,269 118,348 242,328 123,247 57,106 147,211 190,159 151,315 196,316 153,305 110,273 251,321 154,248 123,335 129,273 120,164 284,178 290,286 152,326 159,138 109,134 136,105 309,240 123,304 264,210 81,7 305,165 204,277 212,264 230,348 77,145 303,261 127,321 107,281 186,352 230,141 271,179 107,271 161,398 150,399 111,285 82,301 73,166 213,126 83,186 132,161 231,343 65,142 126,274 166,123 216,330 131,326 246,322 82,219 51,304 252,237 160,377 103,291 196,314 169,222 139,345 48,108 36,171 30,116 87,189 135,245 96,228 201,156 130,132 87,207 187,307 143,160 97,254 269,215 261,276 242,323 301,266 158,294 51,94 222,178 147,292 230,345 172,343 271,220 210,233 82,252 114,295 51,159 107,263 242,221 189,219 128,254 222,243 172,237 56,295 125,269 261,324 173,124 129,306 150,179 206,299 87,15 258,329 127,300 99,272 205,284 224,249 233,146 46,147 158,398 158,313 304,257 313,335 53,83 151,256 191,151 311,224 82,128 282,132 187,258 204,352 229,339 230,168 187,265 161,302 108,241 152,281 142,114 159,322 135,311 225,307 89,265 226,303 60,59 118,295 104,232 60,115 235,163 150,139 190,275 106,292 87,266 140,109 332,343 297,313 124,148 45,152 188,317 204,354 256,315 249,121 335,345 206,269 97,128 43,166 136,298 256,322 259,307 168,254 144,219 199,226 172,310 231,247 159,274 223,241 187,207 225,352 184,117 139,140 150,239 275,183 135,135 130,289 226,251 87,3 75,172 282,178 149,261 146,336 206,230 61,125 240,292 97,233 164,137 174,308 244,123 154,127 172,130 75,153 144,121 320,143 142,274 53,158 137,176 54,301 154,209 57,145 155,340 309,178 92,305 150,246 162,378 253,263 111,303 119,146 126,309 330,342 85,236 42,318 187,239 242,173 60,64 198,280 155,274 155,108 135,329 222,315 174,252 88,8 323,140 50,188 259,302 339,347 165,282 86,220 236,333 161,256 216,296 234,305 54,112 173,274 164,225 120,287 133,269 211,196 230,246 35,154 260,183 213,332 174,220 78,27 204,269 84,27 131,132 236,227 183,239 187,240 185,119 176,277 140,243 119,272 177,266 89,280 153,210 208,349 57,89 129,116 72,137 137,346 154,179 231,256 226,330 67,159 241,118 205,293 229,165 181,317 184,315 128,120 163,347 145,160 117,145 294,3 143,293 106,145 137,159 278,131 142,216 62,126 222,150 221,313 29,132 53,112 100,136 309,232 223,332 306,129 250,176 180,350 277,228 242,343 82,254 117,287 158,175 230,268 194,264 243,170 159,291 43,141 123,270 112,251 217,279 186,398 150,231 140,114 231,243 158,269 134,224 114,272 192,356 247,257 236,321 145,225 68,136 115,154 148,108 163,127 131,266 241,124 144,256 123,143 202,327 174,253 96,283 193,219 69,208 323,94 110,152 79,186 97,127 313,162 186,269 125,303 134,275 139,268 152,230 139,229 303,172 149,398 109,114 159,218 126,251 44,176 164,228 201,347 154,333 269,183 98,5 230,339 247,288 225,351 94,226 252,244 136,161 56,75 185,317 74,30 220,152 129,318 212,268 148,282 164,380 178,142 109,340 168,259 161,307 211,329 181,353 136,231 96,325 160,116 107,230 141,295 166,319 187,224 139,129 200,139 48,132 142,293 231,237 187,168 173,267 164,111 145,327 142,295 224,310 185,306 133,244 200,310 167,339 150,127 176,144 61,120 90,224 177,239 202,342 299,174 43,197 161,327 156,335 108,273 178,390 266,299 177,319 166,232 198,146 186,330 151,323 218,307 268,214 79,107 115,270 154,314 148,256 123,161 205,340 90,238 44,169 183,337 151,211 78,32 177,225 311,154 145,341 152,239 294,5 148,292 111,227 80,12 155,249 215,300 149,394 154,302 207,221 159,339 41,104 310,159 306,327 181,222 134,291 209,214 221,312 193,253 66,103 58,84 183,147 126,154 113,284 106,142 204,346 166,235 40,157 209,249 176,141 200,256 201,327 132,276 259,129 252,324 269,263 87,255 230,126 151,235 177,159 39,159 124,121 172,319 151,310 158,116 119,275 201,286 124,309 86,18 189,319 189,239 258,121 260,119 166,335 177,251 225,154 310,228 110,263 72,36 93,234 319,68 304,323 210,324 155,250 239,263 120,316 310,229 140,135 152,334 234,264 134,293 60,172 95,273 175,243 134,135 86,254 129,133 150,282 152,142 222,179 160,278 159,298 164,349 303,320 114,261 80,235 215,246 319,72 133,161 111,243 238,233 122,286 88,245 194,153 170,349 232,297 32,112 216,329 213,306 123,137 134,313 86,293 136,287 141,316 293,307 64,121 147,311 144,295 81,200 135,313 195,264 265,269 124,252 194,328 267,314 216,244 142,282 74,26 165,349 169,220 141,256 162,342 182,256 66,147 45,169 50,171 77,205 170,350 183,395 107,114 136,108 183,273 144,306 108,245 86,265 48,171 210,213 185,321 194,351 229,238 124,152 128,240 127,304 92,222 229,208 134,251 216,127 203,269 154,298 112,265 97,119 245,234 175,312 53,81 56,141 100,259 127,288 216,240 247,239 183,172 313,48 248,228 139,248 243,314 139,126 127,285 221,182 256,258 85,29 96,161 173,262 321,81 142,225 291,180 239,231 134,303 90,245 97,160 197,148 48,181 148,275 125,297 157,245 247,286 109,300 141,226 83,201 163,122 323,95 164,395 58,180 157,331 199,306 82,146 209,312 251,266 107,273 230,167 182,125 132,279 89,235 189,217 117,259 90,255 147,132 223,218 182,275 174,327 21,334 97,261 251,333 144,213 187,286 186,314 210,323 174,296 130,269 238,329 52,171 109,251 188,304 169,293 36,102 29,107 180,169 152,339 141,217 27,116 65,86 158,326 139,224 210,269 128,133 84,229 323,117 224,163 32,102 179,219 169,339 174,329 59,280 106,275 147,262 118,288 140,306 38,103 199,301 178,304 101,137 92,211 139,218 158,391 147,317 243,320 195,215 220,308 174,315 266,305 149,247 164,202 122,121 300,267 90,112 147,224 155,113 156,127 180,212 182,284 108,278 95,236 167,112 235,176 86,231 178,277 193,300 234,149 323,99 82,260 293,280 226,256 136,249 217,150 161,349 59,171 136,321 48,214 244,338 250,324 231,338 83,127 93,309 190,355 112,299 211,221 248,232 158,135 67,22 193,320 91,151 210,332 182,344 158,263 146,222 212,226 66,92 143,302 151,113 194,253 211,273 213,243 104,335 312,130 125,353 50,133 277,130 144,346 288,301 118,246 63,100 230,228 119,114 141,261 307,166 222,238 170,220 121,106 119,315 68,209 167,352 100,273 127,316 125,151 309,162 271,130 149,206 259,183 103,274 190,208 155,295 190,239 150,247 227,342 261,306 81,195 157,148 111,290 181,230 74,121 80,1 175,119 202,351 96,274 224,171 138,253 75,189 150,278 227,304 260,275 234,259 140,227 125,237 97,110 72,104 277,252 179,303 261,118 163,220 203,280 252,183 176,232 308,173 198,162 30,117 173,315 184,320 139,317 77,170 197,310 73,153 77,127 165,196 153,318 154,322 110,234 239,319 297,178 109,269 219,295 111,144 135,257 113,252 257,257 229,342 113,344 199,310 160,322 244,323 253,239 148,260 188,341 90,259 181,308 131,325 175,247 265,210 87,204 96,252 264,301 93,312 286,134 163,333 315,157 308,243 156,207 110,283 224,313 26,332 212,318 258,327 80,251 307,129 142,229 170,251 215,145 166,333 259,278 139,290 254,243 192,157 118,159 253,265 177,324 149,178 151,236 251,329 149,174 264,272 187,346 127,113 72,204 312,167 153,249 180,252 130,258 134,298 164,250 136,102 278,248 123,301 314,158 175,387 129,138 268,267 140,303 221,343 244,119 243,234 35,156 247,228 225,238 160,147 87,251 260,130 150,238 311,155 84,259 272,220 58,114 61,84 57,107 123,280 198,233 129,271 150,254 150,285 231,271 72,154 194,316 89,15 197,274 209,304 280,238 235,209 223,342 207,245 220,337 295,276 143,270 268,215 197,162 137,314 127,260 182,178 150,251 56,70 145,132 170,239 163,314 249,116 138,130 147,347 201,349 239,234 195,313 73,119 87,132 216,303 75,156 106,164 143,329 272,267 234,346 164,302 185,176 170,235 248,287 209,279 165,265 68,31 178,337 152,374 233,304 289,180 233,271 272,130 120,147 257,256 236,263 70,208 201,264 92,275 155,276 32,145 89,17 144,224 86,270 121,260 146,282 86,244 228,316 151,212 67,147 92,226 172,262 126,160 322,90 153,211 163,250 314,160 203,232 203,322 188,217 191,295 321,79 157,221 135,242 188,245 88,15 155,330 146,132 135,262 109,226 308,31 119,121 182,327 188,152 184,282 212,302 232,339 188,162 244,231 121,142 150,318 150,374 146,370 170,300 207,283 273,223 43,173 141,335 172,347 92,232 126,249 80,259 61,176 55,301 122,351 163,322 82,302 320,74 185,308 182,237 148,264 166,282 263,262 263,263 179,214 51,216 88,273 271,269 158,376 158,147 124,266 230,346 230,319 314,135 100,330 96,234 54,78 216,302 89,254 206,311 91,297 181,393 258,178 157,344 249,322 59,83 182,254 120,119 60,146 241,319 155,144 175,270 197,123 272,266 132,175 186,237 83,236 154,398 315,54 146,237 167,259 244,321 124,313 149,318 195,220 311,130 209,340 125,135 120,160 149,270 102,139 154,115 143,220 215,352 101,158 296,175 135,231 182,335 221,302 185,170 115,346 69,132 326,132 109,291 168,275 194,293 170,180 181,174 252,325 163,137 86,126 214,273 138,326 72,174 66,124 140,365 94,320 117,308 222,158 109,106 80,31 137,165 26,119 323,93 303,258 229,242 292,176 58,85 232,173 36,168 204,240 86,13 185,118 145,218 260,319 137,133 106,133 214,296 204,284 188,339 85,206 115,310 245,122 200,259 125,173 194,286 182,238 110,278 27,113 126,140 72,152 81,215 143,324 223,273 94,236 269,300 173,220 124,242 167,128 242,297 234,210 244,175 191,274 240,333 168,221 131,273 63,93 97,279 185,336 186,286 144,246 157,237 167,162 122,163 196,262 126,239 263,130 190,117 127,120 108,169 210,322 297,10 138,325 165,347 130,248 267,141 170,276 288,181 212,246 182,314 59,65 86,186 167,332 258,256 127,150 89,6 134,301 212,293 199,222 138,347 249,333 253,178 152,121 240,336 259,178 167,175 135,271 316,153 194,129 164,117 194,168 122,284 225,267 176,115 252,302 245,320 186,279 162,317 169,351 301,16 185,258 97,270 187,233 204,222 315,338 244,340 86,5 212,260 217,235 182,152 279,131 177,269 219,146 267,129 110,288 8,339 118,312 220,322 208,294 88,220 107,252 125,264 196,337 233,350 77,34 180,310 162,122 104,114 144,314 140,137 210,221 170,293 191,219 157,227 162,346 155,277 72,150 209,222 242,292 98,6 270,218 149,313 217,326 234,156 207,306 156,113 92,262 67,149 55,300 94,129 211,307 321,141 313,134 131,261 188,149 252,301 102,145 131,312 191,236 231,171 201,285 115,250 143,276 129,356 178,218 158,146 200,140 243,289 264,179 59,89 105,250 99,5 75,188 47,138 155,127 164,231 140,280 106,297 203,214 149,372 233,349 182,219 88,202 187,305 205,303 132,171 195,268 104,271 232,151 161,233 111,273 84,200 160,199 138,244 115,255 232,172 173,272 83,232 45,201 140,258 311,143 163,237 75,190 88,288 134,307 165,202 45,176 222,255 90,246 213,203 221,157 142,367 63,102 199,305 79,179 216,243 87,133 118,146 125,145 130,103 132,104 71,141 206,297 154,144 88,150 123,251 259,300 206,347 187,241 92,237 177,229 152,295 230,213 127,322 163,268 158,139 187,162 171,115 313,143 205,237 83,20 179,116 174,140 174,299 177,171 250,328 71,14 209,290 191,165 132,103 190,122 220,341 59,61 226,313 90,11 139,365 95,322 177,222 189,161 81,247 147,178 179,170 188,225 187,302 89,206 211,241 143,114 132,297 217,352 56,152 27,117 165,329 139,245 126,255 152,337 138,299 228,271 102,292 220,309 264,209 109,225 200,274 184,254 167,215 269,274 124,286 243,332 157,230 148,230 269,129 176,280 214,327 115,266 252,318 110,261 176,295 214,325 246,258 187,308 136,248 106,255 123,262 123,140 243,231 108,298 72,122 324,124 187,252 246,332 81,29 211,291 155,273 159,346 202,269 310,157 185,252 76,211 142,320 77,201 159,210 95,274 183,149 320,76 110,226 245,235 62,81 160,217 150,252 190,171 201,124 72,20 260,320 267,293 104,159 171,161 188,207 181,328 158,305 248,317 196,323 63,135 228,298 177,232 223,333 276,183 262,272 211,341 108,114 143,128 213,268 145,334 209,296 153,248 258,311 95,317 189,339 135,224 254,239 91,296 137,263 236,322 197,352 201,305 46,139 154,139 168,219 48,128 234,302 208,241 146,305 311,40 167,292 215,245 268,312 263,209 141,315 145,263 78,249 83,204 64,92 88,24 317,64 165,380 220,339 166,138 65,146 185,264 122,255 225,298 74,141 147,334 188,122 111,169 128,139 131,358 145,320 189,355 231,146 121,279 245,173 40,169 81,213 113,307 263,322 136,278 226,273 149,395 27,121 183,282 108,144 200,138 229,319 205,275 133,304 118,274 150,327 93,259 238,318 31,115 130,262 234,255 266,304 222,338 220,320 212,309 65,75 193,287 45,312 151,290 199,261 157,268 256,178 230,350 175,298 309,241 98,229 130,170 223,175 48,308 248,272 209,269 159,217 57,81 80,237 215,239 70,163 208,144 303,177 196,211 249,335 180,245 185,177 172,245 89,238 184,172 177,243 136,279 322,340 176,347 42,194 105,163 116,122 175,172 277,183 110,296 247,255 301,264 105,291 149,106 130,253 183,253 125,138 257,319 71,170 119,301 172,115 146,343 211,328 103,153 151,127 215,240 112,248 65,123 161,339 150,373 309,231 223,307 252,177 155,275 158,395 179,145 136,223 89,150 193,138 249,343 259,315 145,262 131,280 193,355 221,268 291,305 161,393 182,274 137,274 188,112 183,346 214,238 183,173 187,153 122,137 93,307 194,209 185,301 111,226 101,290 305,176 51,96 259,119 156,116 212,272 167,222 152,179 139,241 176,331 91,289 210,320 104,255 117,121 84,221 124,352 192,279 151,223 62,97 105,232 153,280 86,217 121,288 272,271 187,328 221,183 237,318 238,169 246,325 244,224 83,298 126,335 172,162 220,245 182,146 204,125 187,144 52,148 116,346 134,116 117,272 41,171 99,135 137,137 101,267 156,326 94,321 195,254 42,196 111,293 86,29 131,300 294,280 56,179 336,345 162,254 99,133 323,98 217,255 243,260 161,328 158,210 161,247 232,269 155,317 166,231 170,272 47,108 178,145 64,103 216,258 99,171 53,84 254,331 31,113 221,241 273,130 67,40 173,293 185,257 179,270 79,147 153,214 72,163 125,249 121,267 219,251 323,91 199,134 80,200 20,334 307,248 171,240 185,268 128,276 183,230 272,117 202,125 76,167 162,302 176,311 181,392 227,162 148,334 229,247 149,279 193,351 125,311 152,395 264,302 169,112 56,217 222,321 226,317 212,279 84,19 284,294 120,298 196,304 189,112 231,332 110,232 183,343 229,346 54,101 195,261 146,228 149,219 74,124 113,292 300,317 162,291 311,141 106,137 262,136 139,300 294,277 214,127 144,331 193,294 118,306 208,126 115,263 86,195 235,343 226,334 206,245 218,323 233,237 218,145 311,139 208,223 87,27 206,332 148,272 119,267 101,332 139,330 154,242 99,327 175,143 157,145 132,261 72,118 155,301 212,198 159,232 157,316 132,300 70,262 134,250 149,282 203,281 48,212 226,344 161,278 236,231 64,122 221,245 167,234 157,234 123,148 207,214 137,222 82,190 162,323 161,225 270,179 289,177 160,220 234,303 145,256 35,111 111,116 140,240 152,109 148,214 190,357 143,277 222,340 130,157 123,306 234,300 169,240 246,259 109,108 120,349 122,105 139,277 111,229 179,242 52,138 256,317 116,309 277,227 252,334 166,380 58,150 177,347 231,170 170,345 234,256 160,255 67,152 207,339 142,224 128,306 157,262 107,104 97,172 153,251 240,122 247,221 201,235 165,334 127,156 214,258 286,291 308,174 163,348 108,236 129,355 81,145 221,237 200,222 209,351 142,233 143,304 108,135 258,321 136,139 139,173 166,283 73,147 245,118 182,211 138,229 65,128 192,264 110,233 139,223 195,337 154,262 72,162 132,309 183,240 266,274 185,111 87,136 56,85 236,232 196,315 146,217 223,278 176,330 135,223 125,268 204,223 97,265 144,326 123,311 103,135 83,254 109,150 146,254 192,320 69,19 121,276 49,109 75,157 168,344 234,348 237,179 130,156 79,32 157,350 302,17 208,347 50,186 96,323 221,345 171,322 220,127 224,254 187,334 115,153 52,88 186,302 183,313 135,243 175,321 86,232 213,294 205,148 146,247 139,284 189,173 85,13 228,126 217,152 58,281 180,145 96,253 101,274 75,18 77,169 193,317 166,284 74,8 238,180 260,311 72,153 116,157 209,311 125,114 272,281 236,334 181,309 61,216 153,259 135,264 53,142 208,225 135,139 73,20 79,205 183,272 150,236 89,112 117,303 83,235 230,340 129,137 178,275 228,213 163,247 106,116 102,140 127,105 190,274 184,235 52,303 149,280 244,120 128,293 291,136 252,330 245,272 153,242 93,276 173,353 312,149 202,344 266,307 269,265 97,126 179,308 84,147 174,179 248,337 140,249 204,251 211,337 176,254 217,355 73,124 106,296 166,353 230,231 157,224 250,254 202,285 49,184 192,163 243,297 132,256 114,299 312,150 152,238 45,204 166,340 57,171 165,307 183,301 96,131 139,293 191,141 70,167 200,210 249,119 152,303 141,291 151,374 155,350 240,334 324,120 240,165 27,120 151,229 149,226 166,252 127,151 203,314 83,131 189,356 135,114 91,294 156,302 94,8 140,164 320,78 137,296 135,287 172,227 294,279 194,160 198,241 46,312 71,13 144,327 265,300 174,161 113,270 185,272 111,221 156,332 105,279 242,340 309,237 162,203 147,257 224,272 322,85 176,387 190,267 127,116 203,306 268,120 267,183 228,240 88,16 82,149 165,117 155,140 161,246 83,200 254,241 291,176 28,332 70,157 264,140 230,232 67,157 236,117 159,136 308,244 54,79 92,299 71,24 141,366 73,105 89,284 177,318 138,304 182,273 175,236 159,122 85,207 201,225 101,279 122,138 148,261 46,208 125,154 136,330 226,215 221,316 79,31 141,173 134,310 273,222 168,247 307,247 113,262 126,262 319,145 76,126 119,266 223,276 216,279 129,312 186,252 203,295 206,233 184,317 227,296 251,315 202,346 227,260 226,159 51,163 79,211 248,240 84,268 75,139 91,6 110,302 220,153 178,340 186,318 258,328 87,125 266,273 54,155 123,153 153,109 235,159 69,134 221,273 304,322 202,294 133,225 155,299 165,313 228,333 197,257 192,252 177,310 309,33 121,139 132,358 106,136 217,127 174,276 83,234 143,215 280,235 175,354 245,231 59,82 193,326 44,314 105,277 71,169 184,171 183,254 153,139 269,298 235,177 90,218 181,181 85,191 221,218 145,178 110,151 146,107 313,145 180,302 207,325 316,151 223,313 150,212 33,108 95,229 126,311 110,147 205,350 310,129 158,394 48,309 169,275 83,16 60,65 57,146 151,140 117,288 106,281 190,278 137,291 109,253 78,15 159,293 10,338 208,274 258,313 270,140 319,146 204,245 48,172 128,103 260,304 191,147 160,240 133,131 95,267 116,275 166,113 234,262 218,332 239,312 168,274 199,322 59,87 162,222 111,114 238,116 177,178 183,312 223,238 157,201 224,236 144,268 190,340 160,204 244,226 182,217 88,236 60,86 299,269 126,245 50,110 94,210 145,253 219,320 78,189 266,271 91,298 182,350 194,310 156,272 240,312 90,126 74,29 177,135 185,299 313,144 185,296 162,256 78,184 111,298 215,268 143,111 110,284 312,151 214,298 35,160 42,105 185,328 116,158 185,325 123,259 47,310 78,19 159,303 198,221 196,164 110,155 35,162 179,333 69,26 92,303 158,349 204,322 171,334 66,45 102,267 45,125 217,306 149,236 166,264 86,250 106,266 232,254 147,344 94,229 208,251 102,141 63,99 238,263 262,257 202,241 296,312 69,263 214,143 132,338 166,285 176,329 113,279 240,344 149,286 115,254 251,120 305,324 258,316 226,348 131,279 153,266 87,215 241,184 320,142 162,334 123,317 203,248 188,295 209,314 77,198 185,396 244,295 234,260 192,170 198,240 245,176 234,229 86,7 274,265 211,303 108,234 308,328 172,118 172,251 225,329 29,106 204,275 107,105 290,304 174,385 43,107 83,244 132,235 137,108 149,399 232,149 189,278 201,323 157,324 292,180 136,311 63,268 52,89 57,289 229,341 123,105 130,105 275,261 139,332 212,257 73,31 151,282 135,108 84,263 166,313 165,249 210,254 205,331 179,299 193,259 115,279 105,262 99,234 139,278 251,236 75,204 263,259 173,177 98,274 114,294 188,143 121,138 225,231 143,317 146,271 302,18 249,342 257,185 101,251 144,325 235,351 228,273 98,253 121,121 174,317 167,327 187,262 166,137 211,295 166,248 163,232 197,270 311,170 92,300 281,131 231,169 226,308 132,284 120,141 75,25 190,264 197,251 181,212 122,274 197,316 62,98 12,338 109,294 173,132 136,234 210,193 131,315 250,269 90,221 169,311 244,324 224,175 54,174 169,118 226,257 172,311 243,222 76,178 123,144 179,111 229,213 149,396 265,273 49,183 241,323 194,322 113,299 37,102 122,276 192,226 158,179 53,217 116,295 262,183 122,306 225,250 257,300 92,301 144,140 81,240 148,301 31,102 159,255 136,283 306,177 215,319 228,262 59,275 136,284 101,291 117,262 135,296 163,280 175,173 305,255 178,299 106,134 194,280 185,255 58,62 94,263 59,85 317,151 323,116 241,229 101,169 325,124 108,283 117,291 261,179 213,279 115,275 158,109 116,311 225,292 99,275 43,143 73,143 218,326 160,237 83,31 90,204 177,296 102,146 140,247 210,315 221,180 103,156 79,19 130,230 173,227 118,171 169,271 178,347 75,151 141,129 108,281 200,323 57,292 159,342 166,163 64,86 224,217 146,289 159,231 141,283 305,170 163,115 187,229 107,165 168,297 142,128 131,292 166,381 271,280 133,303 228,320 111,284 211,315 92,235 196,268 203,125 224,152 180,215 122,173 140,287 52,140 264,117 154,261 78,214 188,231 153,230 121,259 87,18 242,331 71,133 107,240 304,21 108,139 179,332 156,149 109,133 183,311 105,261 165,122 229,275 188,212 193,312 59,64 138,132 88,229 140,314 223,315 120,272 98,159 144,340 153,337 141,290 157,244 252,265 46,311 105,276 195,153 111,260 198,315 312,44 155,175 222,230 187,247 179,142 160,245 177,316 178,270 156,213 260,301 135,120 226,321 327,131 126,307 206,227 198,308 79,24 265,310 310,233 97,124 48,137 37,177 60,60 131,238 323,96 109,267 280,239 310,132 139,247 174,262 77,28 89,277 141,124 163,180 80,232 311,142 195,291 174,162 210,245 130,261 81,218 110,250 80,185 262,324 205,147 135,270 161,241 225,126 84,30 171,238 140,223 227,160 90,206 175,176 107,166 110,148 227,298 185,242 136,344 259,279 142,220 271,119 225,212 120,166 167,299 236,319 223,325 107,129 131,317 133,249 52,100 152,218 142,323 225,216 91,248 227,332 108,156 292,282 109,228 142,291 242,335 72,123 194,247 54,302 207,350 150,253 251,318 216,257 63,267 311,153 161,122 44,199 234,209 115,171 91,252 99,246 265,303 243,232 38,179 68,36 196,216 166,117 134,360 102,279 191,238 110,235 212,244 128,160 115,286 308,156 257,178 149,321 299,178 126,159 106,250 186,249 85,222 248,271 144,328 147,214 38,326 120,269 241,261 234,155 89,243 208,214 207,334 87,209 250,236 67,137 147,267 185,345 134,328 209,325 236,325 65,127 202,229 156,179 234,304 84,219 169,135 146,257 210,243 89,244 128,105 114,259 97,287 204,355 142,311 272,272 167,297 40,116 110,243 215,143 81,18 249,226 164,234 90,226 225,273 193,264 241,172 161,249 197,233 83,215 92,267 120,310 105,275 157,323 207,309 90,267 32,144 190,213 223,344 294,278 158,114 200,243 196,123 174,321 111,245 173,341 179,240 200,268 244,341 109,261 220,330 46,151 242,338 107,132 136,295 108,161 192,214 118,116 166,273 133,104 203,275 157,200 144,281 199,321 66,91 192,299 180,296 234,327 242,184 124,116 313,142 181,253 223,293 133,342 77,16 172,314 44,141 85,134 161,215 259,303 280,182 193,316 192,294 219,220 138,267 138,165 186,272 171,139 325,341 154,240 193,162 96,324 54,154 217,145 86,210 156,397 321,83 126,313 76,179 100,276 137,130 84,186 247,236 73,127 232,265 138,346 138,285 189,166 269,116 179,213 313,46 222,346 80,187 205,239 260,276 212,145 135,305 151,121 147,174 197,311 123,283 130,312 82,215 88,221 144,260 194,321 102,142 266,308 213,238 111,230 151,249 188,320 117,281 218,244 214,299 188,156 176,299 146,371 194,313 139,267 233,147 152,203 238,236 149,297 223,275 155,337 132,226 182,173 244,336 213,330 247,256 93,9 224,326 211,281 92,128 206,322 87,13 102,143 213,272 82,7 34,153 107,269 161,114 196,353 129,155 181,179 285,293 268,268 87,232 232,270 89,133 163,380 167,140 113,343 148,239 49,177 159,270 192,225 145,290 83,256 212,323 138,298 206,348 233,210 234,263 39,187 143,107 176,307 168,175 233,152 181,220 40,153 223,341 112,250 263,268 183,236 145,342 97,326 167,198 165,350 231,236 126,231 191,146 202,155 131,277 71,134 195,310 61,144 53,138 221,147 249,332 255,259 214,259 173,241 200,137 196,165 269,293 173,332 245,337 156,319 272,262 186,176 97,255 113,254 193,155 90,269 241,335 106,105 132,131 201,233 67,118 202,309 185,171 158,223 216,349 147,144 194,166 144,319 263,258 245,326 126,278 134,284 241,230 222,293 264,135 176,269 163,379 40,158 67,150 125,274 69,28 275,140 141,268 135,134 298,315 103,270 160,378 180,222 61,91 171,335 237,118 171,180 280,242 226,331 190,352 219,268 142,135 126,157 257,323 239,165 184,249 174,143 253,252 167,305 115,144 124,301 40,322 165,294 119,253 253,267 95,161 139,246 65,74 114,280 179,221 25,333 108,282 102,135 167,347 197,124 126,121 172,297 254,317 82,209 170,230 79,206 73,144 188,174 180,234 132,274 202,353 85,205 181,217 88,2 153,323 119,158 157,399 61,124 161,392 209,335 141,305 141,276 211,290 61,143 168,270 206,296 106,280 89,286 150,320 187,296 180,283 87,273 205,227 171,272 195,318 214,233 167,316 189,324 189,252 185,120 103,284 65,147 273,261 166,229 271,117 306,24 173,214 157,299 40,168 310,170 70,206 230,349 127,283 116,254 169,338 218,354 80,22 151,230 141,123 157,261 293,281 185,164 88,232 93,316 210,279 187,112 118,162 202,274 212,261 69,39 210,344" stroke="black" stroke-width="1" /></svg>